%TF.GenerationSoftware,KiCad,Pcbnew,(5.1.9)-1*%
%TF.CreationDate,2021-04-12T14:13:55+08:00*%
%TF.ProjectId,HDSP_StatTrak,48445350-5f53-4746-9174-5472616b2e6b,rev?*%
%TF.SameCoordinates,Original*%
%TF.FileFunction,Copper,L2,Bot*%
%TF.FilePolarity,Positive*%
%FSLAX46Y46*%
G04 Gerber Fmt 4.6, Leading zero omitted, Abs format (unit mm)*
G04 Created by KiCad (PCBNEW (5.1.9)-1) date 2021-04-12 14:13:55*
%MOMM*%
%LPD*%
G01*
G04 APERTURE LIST*
%TA.AperFunction,ComponentPad*%
%ADD10C,3.500000*%
%TD*%
%TA.AperFunction,ComponentPad*%
%ADD11O,0.900000X1.700000*%
%TD*%
%TA.AperFunction,ComponentPad*%
%ADD12O,0.900000X2.000000*%
%TD*%
%TA.AperFunction,ViaPad*%
%ADD13C,0.800000*%
%TD*%
%TA.AperFunction,Conductor*%
%ADD14C,0.250000*%
%TD*%
%TA.AperFunction,Conductor*%
%ADD15C,0.200000*%
%TD*%
%TA.AperFunction,Conductor*%
%ADD16C,0.500000*%
%TD*%
%TA.AperFunction,Conductor*%
%ADD17C,0.254000*%
%TD*%
%TA.AperFunction,Conductor*%
%ADD18C,0.100000*%
%TD*%
G04 APERTURE END LIST*
D10*
%TO.P,J5,1*%
%TO.N,GND*%
X87000000Y-92500000D03*
%TD*%
%TO.P,J4,1*%
%TO.N,GND*%
X87000000Y-77500000D03*
%TD*%
%TO.P,J3,1*%
%TO.N,N/C*%
X142000000Y-77500000D03*
%TD*%
%TO.P,J2,1*%
%TO.N,N/C*%
X142000000Y-92500000D03*
%TD*%
D11*
%TO.P,J1,S1*%
%TO.N,GND*%
X137820000Y-93240000D03*
X129180000Y-93240000D03*
D12*
X137820000Y-89070000D03*
X129180000Y-89070000D03*
%TD*%
D13*
%TO.N,Net-(16MHz1-Pad1)*%
X105000010Y-80500000D03*
X104000000Y-84500000D03*
%TO.N,GND*%
X86400000Y-85000000D03*
X98000000Y-87400000D03*
X108200000Y-82600000D03*
X114000000Y-88600000D03*
X125400000Y-79800000D03*
X99500000Y-92500000D03*
X99500000Y-94200000D03*
%TO.N,VCC*%
X98000000Y-80000000D03*
X99800000Y-78200000D03*
X100937500Y-93437500D03*
X108600006Y-94374964D03*
%TO.N,V_USB*%
X110200014Y-87799986D03*
X125800000Y-88200000D03*
X110200000Y-92599990D03*
X134900000Y-91000000D03*
X131587347Y-89887347D03*
%TO.N,Net-(J1-PadA6)*%
X133000000Y-91000000D03*
X118000000Y-89999988D03*
%TO.N,Net-(J1-PadA7)*%
X130500000Y-92000000D03*
X118000000Y-92000000D03*
%TO.N,Net-(MCU1-Pad13)*%
X107000000Y-84600000D03*
X93000000Y-87500000D03*
%TO.N,SCL|D3*%
X117200000Y-76000000D03*
X102499992Y-84800000D03*
%TO.N,D5*%
X99500000Y-91000000D03*
X94435000Y-93135000D03*
%TO.N,D4*%
X96000000Y-77800000D03*
X98000000Y-90000000D03*
%TO.N,D7*%
X136400000Y-76000000D03*
X111400000Y-93400000D03*
%TD*%
D14*
%TO.N,Net-(16MHz1-Pad1)*%
X105000010Y-83499990D02*
X104000000Y-84500000D01*
X105000010Y-80500000D02*
X105000010Y-83499990D01*
%TO.N,GND*%
X87163926Y-85763926D02*
X87163926Y-91820826D01*
X86400000Y-85000000D02*
X87163926Y-85763926D01*
X128520000Y-94400000D02*
X129680000Y-93240000D01*
D15*
%TO.N,VCC*%
X98000000Y-80000000D02*
X99800000Y-78200000D01*
D14*
X100937500Y-93437500D02*
X100937497Y-93437497D01*
D16*
X107662542Y-93437500D02*
X108600006Y-94374964D01*
X100937500Y-93437500D02*
X107662542Y-93437500D01*
D14*
%TO.N,V_USB*%
X110200014Y-92599976D02*
X110200000Y-92599990D01*
X110200014Y-87799986D02*
X110200014Y-92599976D01*
X133787347Y-89887347D02*
X131587347Y-89887347D01*
X134900000Y-91000000D02*
X133787347Y-89887347D01*
D15*
X110200014Y-87799986D02*
X115499986Y-87799986D01*
X115900000Y-88200000D02*
X125800000Y-88200000D01*
X115499986Y-87799986D02*
X115900000Y-88200000D01*
D14*
%TO.N,Net-(J1-PadA6)*%
X118500000Y-90499988D02*
X118000000Y-89999988D01*
X118500000Y-90500000D02*
X118500000Y-90499988D01*
X119000000Y-91000000D02*
X118500000Y-90500000D01*
X133000000Y-91000000D02*
X119000000Y-91000000D01*
%TO.N,Net-(J1-PadA7)*%
X131000000Y-92000000D02*
X118000000Y-92000000D01*
%TO.N,Net-(MCU1-Pad13)*%
X103200001Y-88399999D02*
X93899999Y-88399999D01*
X107000000Y-84600000D02*
X103200001Y-88399999D01*
X93899999Y-88399999D02*
X93000000Y-87500000D01*
%TO.N,SCL|D3*%
X102000000Y-84300008D02*
X102499992Y-84800000D01*
X102000000Y-80000000D02*
X102000000Y-84300008D01*
X106000000Y-76000000D02*
X102000000Y-80000000D01*
X117200000Y-76000000D02*
X106000000Y-76000000D01*
%TO.N,D5*%
X97365000Y-93135000D02*
X94435000Y-93135000D01*
X99500000Y-91000000D02*
X97365000Y-93135000D01*
%TO.N,D4*%
X92200000Y-89000000D02*
X93200000Y-90000000D01*
X93200000Y-90000000D02*
X98000000Y-90000000D01*
X92200000Y-83400000D02*
X92200000Y-89000000D01*
X96000000Y-79600000D02*
X92200000Y-83400000D01*
X96000000Y-77800000D02*
X96000000Y-79600000D01*
%TO.N,D7*%
X115600000Y-89200000D02*
X111400000Y-93400000D01*
X119200000Y-89200000D02*
X115600000Y-89200000D01*
X125860334Y-89800000D02*
X119800000Y-89800000D01*
X131181099Y-84479235D02*
X125860334Y-89800000D01*
X131181099Y-83886927D02*
X131181099Y-84479235D01*
X132386927Y-82681099D02*
X131181099Y-83886927D01*
X132979235Y-82681099D02*
X132386927Y-82681099D01*
X136400000Y-79260334D02*
X132979235Y-82681099D01*
X119800000Y-89800000D02*
X119200000Y-89200000D01*
X136400000Y-76000000D02*
X136400000Y-79260334D01*
%TD*%
D17*
%TO.N,GND*%
X86052532Y-75298703D02*
X85696073Y-75489234D01*
X85509997Y-75830391D01*
X87000000Y-77320395D01*
X88490003Y-75830391D01*
X88303927Y-75489234D01*
X87897255Y-75279000D01*
X117098233Y-75279000D01*
X116987942Y-75300938D01*
X116855636Y-75355741D01*
X116736564Y-75435302D01*
X116635302Y-75536564D01*
X116627661Y-75548000D01*
X106022204Y-75548000D01*
X105999999Y-75545813D01*
X105911392Y-75554540D01*
X105891562Y-75560556D01*
X105826190Y-75580386D01*
X105747667Y-75622357D01*
X105678841Y-75678841D01*
X105664686Y-75696089D01*
X101696100Y-79664677D01*
X101678841Y-79678841D01*
X101622357Y-79747668D01*
X101593884Y-79800938D01*
X101580386Y-79826191D01*
X101554540Y-79911393D01*
X101545813Y-80000000D01*
X101548000Y-80022205D01*
X101548001Y-84277793D01*
X101545813Y-84300008D01*
X101548732Y-84329647D01*
X101494934Y-84249133D01*
X101330867Y-84085066D01*
X101137945Y-83956159D01*
X100923581Y-83867366D01*
X100696013Y-83822100D01*
X100531669Y-83822100D01*
X100729124Y-83624645D01*
X100929066Y-83325409D01*
X101066789Y-82992916D01*
X101137000Y-82639944D01*
X101137000Y-82280056D01*
X101066789Y-81927084D01*
X100929066Y-81594591D01*
X100729124Y-81295355D01*
X100474645Y-81040876D01*
X100175409Y-80840934D01*
X99842916Y-80703211D01*
X99489944Y-80633000D01*
X99130056Y-80633000D01*
X98777084Y-80703211D01*
X98444591Y-80840934D01*
X98145355Y-81040876D01*
X97890876Y-81295355D01*
X97690934Y-81594591D01*
X97553211Y-81927084D01*
X97483000Y-82280056D01*
X97483000Y-82639944D01*
X97553211Y-82992916D01*
X97690934Y-83325409D01*
X97890876Y-83624645D01*
X98145355Y-83879124D01*
X98444591Y-84079066D01*
X98777084Y-84216789D01*
X99130056Y-84287000D01*
X99489944Y-84287000D01*
X99662729Y-84252631D01*
X99536159Y-84442055D01*
X99447366Y-84656419D01*
X99402100Y-84883987D01*
X99402100Y-85116013D01*
X99447366Y-85343581D01*
X99536159Y-85557945D01*
X99665066Y-85750867D01*
X99829133Y-85914934D01*
X100022055Y-86043841D01*
X100236419Y-86132634D01*
X100463987Y-86177900D01*
X100696013Y-86177900D01*
X100923581Y-86132634D01*
X101137945Y-86043841D01*
X101330867Y-85914934D01*
X101494934Y-85750867D01*
X101623841Y-85557945D01*
X101712634Y-85343581D01*
X101757900Y-85116013D01*
X101757900Y-84883987D01*
X101712634Y-84656419D01*
X101709414Y-84648645D01*
X101775675Y-84714907D01*
X101772992Y-84728397D01*
X101772992Y-84871603D01*
X101800930Y-85012058D01*
X101855733Y-85144364D01*
X101935294Y-85263436D01*
X102036556Y-85364698D01*
X102155628Y-85444259D01*
X102287934Y-85499062D01*
X102428389Y-85527000D01*
X102571595Y-85527000D01*
X102712050Y-85499062D01*
X102844356Y-85444259D01*
X102963428Y-85364698D01*
X103064690Y-85263436D01*
X103144251Y-85144364D01*
X103199054Y-85012058D01*
X103226992Y-84871603D01*
X103226992Y-84728397D01*
X103199054Y-84587942D01*
X103144251Y-84455636D01*
X103126051Y-84428397D01*
X103273000Y-84428397D01*
X103273000Y-84571603D01*
X103300938Y-84712058D01*
X103355741Y-84844364D01*
X103435302Y-84963436D01*
X103536564Y-85064698D01*
X103655636Y-85144259D01*
X103787942Y-85199062D01*
X103928397Y-85227000D01*
X104071603Y-85227000D01*
X104212058Y-85199062D01*
X104344364Y-85144259D01*
X104463436Y-85064698D01*
X104564698Y-84963436D01*
X104644259Y-84844364D01*
X104699062Y-84712058D01*
X104727000Y-84571603D01*
X104727000Y-84428397D01*
X104724317Y-84414907D01*
X105303915Y-83835309D01*
X105321169Y-83821149D01*
X105377653Y-83752323D01*
X105419624Y-83673800D01*
X105445470Y-83588597D01*
X105446927Y-83573809D01*
X105454197Y-83499990D01*
X105452010Y-83477785D01*
X105452010Y-82280056D01*
X116483000Y-82280056D01*
X116483000Y-82639944D01*
X116553211Y-82992916D01*
X116690934Y-83325409D01*
X116890876Y-83624645D01*
X117145355Y-83879124D01*
X117444591Y-84079066D01*
X117777084Y-84216789D01*
X118130056Y-84287000D01*
X118489944Y-84287000D01*
X118662729Y-84252631D01*
X118536159Y-84442055D01*
X118447366Y-84656419D01*
X118402100Y-84883987D01*
X118402100Y-85116013D01*
X118447366Y-85343581D01*
X118536159Y-85557945D01*
X118665066Y-85750867D01*
X118829133Y-85914934D01*
X119022055Y-86043841D01*
X119236419Y-86132634D01*
X119463987Y-86177900D01*
X119696013Y-86177900D01*
X119923581Y-86132634D01*
X120137945Y-86043841D01*
X120330867Y-85914934D01*
X120494934Y-85750867D01*
X120623841Y-85557945D01*
X120712634Y-85343581D01*
X120757900Y-85116013D01*
X120757900Y-84883987D01*
X120712634Y-84656419D01*
X120623841Y-84442055D01*
X120494934Y-84249133D01*
X120330867Y-84085066D01*
X120137945Y-83956159D01*
X119923581Y-83867366D01*
X119696013Y-83822100D01*
X119531669Y-83822100D01*
X119729124Y-83624645D01*
X119929066Y-83325409D01*
X120066789Y-82992916D01*
X120137000Y-82639944D01*
X120137000Y-82280056D01*
X120066789Y-81927084D01*
X119929066Y-81594591D01*
X119729124Y-81295355D01*
X119474645Y-81040876D01*
X119175409Y-80840934D01*
X118842916Y-80703211D01*
X118489944Y-80633000D01*
X118130056Y-80633000D01*
X117777084Y-80703211D01*
X117444591Y-80840934D01*
X117145355Y-81040876D01*
X116890876Y-81295355D01*
X116690934Y-81594591D01*
X116553211Y-81927084D01*
X116483000Y-82280056D01*
X105452010Y-82280056D01*
X105452010Y-81072339D01*
X105463446Y-81064698D01*
X105564708Y-80963436D01*
X105644269Y-80844364D01*
X105699072Y-80712058D01*
X105727010Y-80571603D01*
X105727010Y-80428397D01*
X105699072Y-80287942D01*
X105644269Y-80155636D01*
X105564708Y-80036564D01*
X105463446Y-79935302D01*
X105344374Y-79855741D01*
X105212068Y-79800938D01*
X105071613Y-79773000D01*
X104928407Y-79773000D01*
X104787952Y-79800938D01*
X104655646Y-79855741D01*
X104536574Y-79935302D01*
X104435312Y-80036564D01*
X104355751Y-80155636D01*
X104300948Y-80287942D01*
X104273010Y-80428397D01*
X104273010Y-80571603D01*
X104300948Y-80712058D01*
X104355751Y-80844364D01*
X104435312Y-80963436D01*
X104536574Y-81064698D01*
X104548010Y-81072339D01*
X104548011Y-83312765D01*
X104085093Y-83775683D01*
X104071603Y-83773000D01*
X103928397Y-83773000D01*
X103787942Y-83800938D01*
X103655636Y-83855741D01*
X103536564Y-83935302D01*
X103435302Y-84036564D01*
X103355741Y-84155636D01*
X103300938Y-84287942D01*
X103273000Y-84428397D01*
X103126051Y-84428397D01*
X103064690Y-84336564D01*
X102963428Y-84235302D01*
X102844356Y-84155741D01*
X102712050Y-84100938D01*
X102571595Y-84073000D01*
X102452000Y-84073000D01*
X102452000Y-80187223D01*
X102899167Y-79740056D01*
X110133000Y-79740056D01*
X110133000Y-80099944D01*
X110203211Y-80452916D01*
X110340934Y-80785409D01*
X110540876Y-81084645D01*
X110795355Y-81339124D01*
X111094591Y-81539066D01*
X111427084Y-81676789D01*
X111780056Y-81747000D01*
X112139944Y-81747000D01*
X112492916Y-81676789D01*
X112825409Y-81539066D01*
X113124645Y-81339124D01*
X113379124Y-81084645D01*
X113579066Y-80785409D01*
X113716789Y-80452916D01*
X113787000Y-80099944D01*
X113787000Y-79740056D01*
X129133000Y-79740056D01*
X129133000Y-80099944D01*
X129203211Y-80452916D01*
X129340934Y-80785409D01*
X129540876Y-81084645D01*
X129795355Y-81339124D01*
X130094591Y-81539066D01*
X130427084Y-81676789D01*
X130780056Y-81747000D01*
X131139944Y-81747000D01*
X131492916Y-81676789D01*
X131825409Y-81539066D01*
X132124645Y-81339124D01*
X132379124Y-81084645D01*
X132579066Y-80785409D01*
X132716789Y-80452916D01*
X132787000Y-80099944D01*
X132787000Y-79740056D01*
X132716789Y-79387084D01*
X132579066Y-79054591D01*
X132379124Y-78755355D01*
X132124645Y-78500876D01*
X131825409Y-78300934D01*
X131492916Y-78163211D01*
X131139944Y-78093000D01*
X130780056Y-78093000D01*
X130427084Y-78163211D01*
X130094591Y-78300934D01*
X129795355Y-78500876D01*
X129540876Y-78755355D01*
X129340934Y-79054591D01*
X129203211Y-79387084D01*
X129133000Y-79740056D01*
X113787000Y-79740056D01*
X113716789Y-79387084D01*
X113579066Y-79054591D01*
X113379124Y-78755355D01*
X113124645Y-78500876D01*
X112825409Y-78300934D01*
X112492916Y-78163211D01*
X112139944Y-78093000D01*
X111780056Y-78093000D01*
X111427084Y-78163211D01*
X111094591Y-78300934D01*
X110795355Y-78500876D01*
X110540876Y-78755355D01*
X110340934Y-79054591D01*
X110203211Y-79387084D01*
X110133000Y-79740056D01*
X102899167Y-79740056D01*
X106187225Y-76452000D01*
X116627661Y-76452000D01*
X116635302Y-76463436D01*
X116736564Y-76564698D01*
X116855636Y-76644259D01*
X116987942Y-76699062D01*
X117128397Y-76727000D01*
X117271603Y-76727000D01*
X117412058Y-76699062D01*
X117544364Y-76644259D01*
X117663436Y-76564698D01*
X117764698Y-76463436D01*
X117844259Y-76344364D01*
X117899062Y-76212058D01*
X117927000Y-76071603D01*
X117927000Y-75928397D01*
X117899062Y-75787942D01*
X117844259Y-75655636D01*
X117764698Y-75536564D01*
X117663436Y-75435302D01*
X117544364Y-75355741D01*
X117412058Y-75300938D01*
X117301767Y-75279000D01*
X136298233Y-75279000D01*
X136187942Y-75300938D01*
X136055636Y-75355741D01*
X135936564Y-75435302D01*
X135835302Y-75536564D01*
X135755741Y-75655636D01*
X135700938Y-75787942D01*
X135673000Y-75928397D01*
X135673000Y-76071603D01*
X135700938Y-76212058D01*
X135755741Y-76344364D01*
X135835302Y-76463436D01*
X135936564Y-76564698D01*
X135948000Y-76572339D01*
X135948001Y-79073108D01*
X132792012Y-82229099D01*
X132409131Y-82229099D01*
X132386926Y-82226912D01*
X132298319Y-82235639D01*
X132278489Y-82241655D01*
X132213117Y-82261485D01*
X132134594Y-82303456D01*
X132065768Y-82359940D01*
X132051612Y-82377189D01*
X130877199Y-83551604D01*
X130859940Y-83565768D01*
X130811622Y-83624645D01*
X130803457Y-83634594D01*
X130761485Y-83713118D01*
X130735639Y-83798320D01*
X130726912Y-83886927D01*
X130729099Y-83909133D01*
X130729100Y-84292010D01*
X129464319Y-85556791D01*
X129552634Y-85343581D01*
X129597900Y-85116013D01*
X129597900Y-84883987D01*
X129552634Y-84656419D01*
X129463841Y-84442055D01*
X129334934Y-84249133D01*
X129170867Y-84085066D01*
X128977945Y-83956159D01*
X128763581Y-83867366D01*
X128536013Y-83822100D01*
X128303987Y-83822100D01*
X128076419Y-83867366D01*
X127862055Y-83956159D01*
X127669133Y-84085066D01*
X127505066Y-84249133D01*
X127376159Y-84442055D01*
X127287366Y-84656419D01*
X127242100Y-84883987D01*
X127242100Y-85116013D01*
X127287366Y-85343581D01*
X127376159Y-85557945D01*
X127505066Y-85750867D01*
X127669133Y-85914934D01*
X127862055Y-86043841D01*
X128076419Y-86132634D01*
X128303987Y-86177900D01*
X128536013Y-86177900D01*
X128763581Y-86132634D01*
X128976792Y-86044319D01*
X126378840Y-88642271D01*
X126444259Y-88544364D01*
X126499062Y-88412058D01*
X126527000Y-88271603D01*
X126527000Y-88128397D01*
X126499062Y-87987942D01*
X126444259Y-87855636D01*
X126364698Y-87736564D01*
X126263436Y-87635302D01*
X126144364Y-87555741D01*
X126012058Y-87500938D01*
X125871603Y-87473000D01*
X125728397Y-87473000D01*
X125587942Y-87500938D01*
X125455636Y-87555741D01*
X125336564Y-87635302D01*
X125235302Y-87736564D01*
X125210956Y-87773000D01*
X116076869Y-87773000D01*
X115816754Y-87512885D01*
X115803381Y-87496591D01*
X115738362Y-87443231D01*
X115664182Y-87403581D01*
X115583693Y-87379164D01*
X115520964Y-87372986D01*
X115520953Y-87372986D01*
X115499986Y-87370921D01*
X115479019Y-87372986D01*
X110789058Y-87372986D01*
X110764712Y-87336550D01*
X110663450Y-87235288D01*
X110544378Y-87155727D01*
X110412072Y-87100924D01*
X110271617Y-87072986D01*
X110128411Y-87072986D01*
X109987956Y-87100924D01*
X109855650Y-87155727D01*
X109736578Y-87235288D01*
X109635316Y-87336550D01*
X109555755Y-87455622D01*
X109500952Y-87587928D01*
X109473014Y-87728383D01*
X109473014Y-87871589D01*
X109500952Y-88012044D01*
X109555755Y-88144350D01*
X109635316Y-88263422D01*
X109736578Y-88364684D01*
X109748014Y-88372325D01*
X109748015Y-92027641D01*
X109736564Y-92035292D01*
X109635302Y-92136554D01*
X109555741Y-92255626D01*
X109500938Y-92387932D01*
X109473000Y-92528387D01*
X109473000Y-92671593D01*
X109500938Y-92812048D01*
X109555741Y-92944354D01*
X109635302Y-93063426D01*
X109736564Y-93164688D01*
X109855636Y-93244249D01*
X109987942Y-93299052D01*
X110128397Y-93326990D01*
X110271603Y-93326990D01*
X110412058Y-93299052D01*
X110544364Y-93244249D01*
X110663436Y-93164688D01*
X110743899Y-93084225D01*
X110700938Y-93187942D01*
X110673000Y-93328397D01*
X110673000Y-93471603D01*
X110700938Y-93612058D01*
X110755741Y-93744364D01*
X110835302Y-93863436D01*
X110936564Y-93964698D01*
X111055636Y-94044259D01*
X111187942Y-94099062D01*
X111328397Y-94127000D01*
X111471603Y-94127000D01*
X111612058Y-94099062D01*
X111744364Y-94044259D01*
X111863436Y-93964698D01*
X111964698Y-93863436D01*
X112044259Y-93744364D01*
X112099062Y-93612058D01*
X112127000Y-93471603D01*
X112127000Y-93328397D01*
X112124317Y-93314907D01*
X115787224Y-89652000D01*
X117358162Y-89652000D01*
X117355741Y-89655624D01*
X117300938Y-89787930D01*
X117273000Y-89928385D01*
X117273000Y-90071591D01*
X117300938Y-90212046D01*
X117355741Y-90344352D01*
X117435302Y-90463424D01*
X117536564Y-90564686D01*
X117655636Y-90644247D01*
X117787942Y-90699050D01*
X117928397Y-90726988D01*
X118071603Y-90726988D01*
X118085093Y-90724305D01*
X118164627Y-90803839D01*
X118178841Y-90821159D01*
X118196100Y-90835323D01*
X118664681Y-91303905D01*
X118678841Y-91321159D01*
X118747667Y-91377643D01*
X118826190Y-91419614D01*
X118911392Y-91445460D01*
X119000000Y-91454187D01*
X119022205Y-91452000D01*
X130019866Y-91452000D01*
X129935302Y-91536564D01*
X129927661Y-91548000D01*
X118572339Y-91548000D01*
X118564698Y-91536564D01*
X118463436Y-91435302D01*
X118344364Y-91355741D01*
X118212058Y-91300938D01*
X118071603Y-91273000D01*
X117928397Y-91273000D01*
X117787942Y-91300938D01*
X117655636Y-91355741D01*
X117536564Y-91435302D01*
X117435302Y-91536564D01*
X117355741Y-91655636D01*
X117300938Y-91787942D01*
X117273000Y-91928397D01*
X117273000Y-92071603D01*
X117300938Y-92212058D01*
X117355741Y-92344364D01*
X117435302Y-92463436D01*
X117536564Y-92564698D01*
X117655636Y-92644259D01*
X117787942Y-92699062D01*
X117928397Y-92727000D01*
X118071603Y-92727000D01*
X118212058Y-92699062D01*
X118344364Y-92644259D01*
X118463436Y-92564698D01*
X118564698Y-92463436D01*
X118572339Y-92452000D01*
X128163188Y-92452000D01*
X128140624Y-92503767D01*
X128095000Y-92713000D01*
X128095000Y-93113000D01*
X129053000Y-93113000D01*
X129053000Y-93093000D01*
X129307000Y-93093000D01*
X129307000Y-93113000D01*
X130265000Y-93113000D01*
X130265000Y-92713000D01*
X130259381Y-92687232D01*
X130287942Y-92699062D01*
X130428397Y-92727000D01*
X130571603Y-92727000D01*
X130641986Y-92713000D01*
X136735000Y-92713000D01*
X136735000Y-93113000D01*
X137693000Y-93113000D01*
X137693000Y-91922498D01*
X137947000Y-91922498D01*
X137947000Y-93113000D01*
X138905000Y-93113000D01*
X138905000Y-92713000D01*
X138859376Y-92503767D01*
X138773809Y-92307455D01*
X138765454Y-92295433D01*
X139923000Y-92295433D01*
X139923000Y-92704567D01*
X140002818Y-93105839D01*
X140159386Y-93483829D01*
X140386689Y-93824011D01*
X140675989Y-94113311D01*
X141016171Y-94340614D01*
X141394161Y-94497182D01*
X141795433Y-94577000D01*
X142204567Y-94577000D01*
X142605839Y-94497182D01*
X142983829Y-94340614D01*
X143324011Y-94113311D01*
X143613311Y-93824011D01*
X143840614Y-93483829D01*
X143997182Y-93105839D01*
X144077000Y-92704567D01*
X144077000Y-92295433D01*
X143997182Y-91894161D01*
X143840614Y-91516171D01*
X143613311Y-91175989D01*
X143324011Y-90886689D01*
X142983829Y-90659386D01*
X142605839Y-90502818D01*
X142204567Y-90423000D01*
X141795433Y-90423000D01*
X141394161Y-90502818D01*
X141016171Y-90659386D01*
X140675989Y-90886689D01*
X140386689Y-91175989D01*
X140159386Y-91516171D01*
X140002818Y-91894161D01*
X139923000Y-92295433D01*
X138765454Y-92295433D01*
X138651587Y-92131609D01*
X138497408Y-91982986D01*
X138317197Y-91867298D01*
X138114001Y-91795592D01*
X137947000Y-91922498D01*
X137693000Y-91922498D01*
X137525999Y-91795592D01*
X137322803Y-91867298D01*
X137142592Y-91982986D01*
X136988413Y-92131609D01*
X136866191Y-92307455D01*
X136780624Y-92503767D01*
X136735000Y-92713000D01*
X130641986Y-92713000D01*
X130712058Y-92699062D01*
X130844364Y-92644259D01*
X130963436Y-92564698D01*
X131064698Y-92463436D01*
X131075871Y-92446714D01*
X131088607Y-92445460D01*
X131173810Y-92419614D01*
X131252333Y-92377643D01*
X131321159Y-92321159D01*
X131377643Y-92252333D01*
X131419614Y-92173810D01*
X131445460Y-92088607D01*
X131454187Y-92000000D01*
X131445460Y-91911393D01*
X131419614Y-91826190D01*
X131377643Y-91747667D01*
X131321159Y-91678841D01*
X131252333Y-91622357D01*
X131173810Y-91580386D01*
X131088607Y-91554540D01*
X131075871Y-91553286D01*
X131064698Y-91536564D01*
X130980134Y-91452000D01*
X132427661Y-91452000D01*
X132435302Y-91463436D01*
X132536564Y-91564698D01*
X132655636Y-91644259D01*
X132787942Y-91699062D01*
X132928397Y-91727000D01*
X133071603Y-91727000D01*
X133212058Y-91699062D01*
X133344364Y-91644259D01*
X133463436Y-91564698D01*
X133564698Y-91463436D01*
X133644259Y-91344364D01*
X133699062Y-91212058D01*
X133727000Y-91071603D01*
X133727000Y-90928397D01*
X133699062Y-90787942D01*
X133644259Y-90655636D01*
X133564698Y-90536564D01*
X133463436Y-90435302D01*
X133344364Y-90355741D01*
X133304785Y-90339347D01*
X133600124Y-90339347D01*
X134175683Y-90914907D01*
X134173000Y-90928397D01*
X134173000Y-91071603D01*
X134200938Y-91212058D01*
X134255741Y-91344364D01*
X134335302Y-91463436D01*
X134436564Y-91564698D01*
X134555636Y-91644259D01*
X134687942Y-91699062D01*
X134828397Y-91727000D01*
X134971603Y-91727000D01*
X135112058Y-91699062D01*
X135244364Y-91644259D01*
X135363436Y-91564698D01*
X135464698Y-91463436D01*
X135544259Y-91344364D01*
X135599062Y-91212058D01*
X135627000Y-91071603D01*
X135627000Y-90928397D01*
X135599062Y-90787942D01*
X135544259Y-90655636D01*
X135464698Y-90536564D01*
X135363436Y-90435302D01*
X135244364Y-90355741D01*
X135112058Y-90300938D01*
X134971603Y-90273000D01*
X134828397Y-90273000D01*
X134814907Y-90275683D01*
X134122670Y-89583447D01*
X134108506Y-89566188D01*
X134039680Y-89509704D01*
X133999535Y-89488246D01*
X135763000Y-89488246D01*
X135763000Y-89611754D01*
X135787095Y-89732889D01*
X135834360Y-89846996D01*
X135902977Y-89949689D01*
X135990311Y-90037023D01*
X136093004Y-90105640D01*
X136207111Y-90152905D01*
X136328246Y-90177000D01*
X136451754Y-90177000D01*
X136572889Y-90152905D01*
X136686996Y-90105640D01*
X136789689Y-90037023D01*
X136807900Y-90018812D01*
X136866191Y-90152545D01*
X136988413Y-90328391D01*
X137142592Y-90477014D01*
X137322803Y-90592702D01*
X137525999Y-90664408D01*
X137693000Y-90537502D01*
X137693000Y-89197000D01*
X137947000Y-89197000D01*
X137947000Y-90537502D01*
X138114001Y-90664408D01*
X138317197Y-90592702D01*
X138497408Y-90477014D01*
X138651587Y-90328391D01*
X138773809Y-90152545D01*
X138859376Y-89956233D01*
X138905000Y-89747000D01*
X138905000Y-89197000D01*
X137947000Y-89197000D01*
X137693000Y-89197000D01*
X137673000Y-89197000D01*
X137673000Y-88943000D01*
X137693000Y-88943000D01*
X137693000Y-87602498D01*
X137947000Y-87602498D01*
X137947000Y-88943000D01*
X138905000Y-88943000D01*
X138905000Y-88393000D01*
X138859376Y-88183767D01*
X138773809Y-87987455D01*
X138651587Y-87811609D01*
X138497408Y-87662986D01*
X138317197Y-87547298D01*
X138114001Y-87475592D01*
X137947000Y-87602498D01*
X137693000Y-87602498D01*
X137525999Y-87475592D01*
X137322803Y-87547298D01*
X137142592Y-87662986D01*
X136988413Y-87811609D01*
X136866191Y-87987455D01*
X136780624Y-88183767D01*
X136735000Y-88393000D01*
X136735000Y-89026435D01*
X136686996Y-88994360D01*
X136572889Y-88947095D01*
X136451754Y-88923000D01*
X136328246Y-88923000D01*
X136207111Y-88947095D01*
X136093004Y-88994360D01*
X135990311Y-89062977D01*
X135902977Y-89150311D01*
X135834360Y-89253004D01*
X135787095Y-89367111D01*
X135763000Y-89488246D01*
X133999535Y-89488246D01*
X133961157Y-89467733D01*
X133875954Y-89441887D01*
X133809552Y-89435347D01*
X133787347Y-89433160D01*
X133765142Y-89435347D01*
X132159686Y-89435347D01*
X132152045Y-89423911D01*
X132050783Y-89322649D01*
X131931711Y-89243088D01*
X131799405Y-89188285D01*
X131658950Y-89160347D01*
X131515744Y-89160347D01*
X131375289Y-89188285D01*
X131242983Y-89243088D01*
X131179189Y-89285714D01*
X131165640Y-89253004D01*
X131097023Y-89150311D01*
X131009689Y-89062977D01*
X130906996Y-88994360D01*
X130792889Y-88947095D01*
X130671754Y-88923000D01*
X130548246Y-88923000D01*
X130427111Y-88947095D01*
X130313004Y-88994360D01*
X130265000Y-89026435D01*
X130265000Y-88393000D01*
X130219376Y-88183767D01*
X130133809Y-87987455D01*
X130011587Y-87811609D01*
X129857408Y-87662986D01*
X129677197Y-87547298D01*
X129474001Y-87475592D01*
X129307000Y-87602498D01*
X129307000Y-88943000D01*
X129327000Y-88943000D01*
X129327000Y-89197000D01*
X129307000Y-89197000D01*
X129307000Y-89217000D01*
X129053000Y-89217000D01*
X129053000Y-89197000D01*
X128095000Y-89197000D01*
X128095000Y-89747000D01*
X128140624Y-89956233D01*
X128226191Y-90152545D01*
X128348413Y-90328391D01*
X128502592Y-90477014D01*
X128613169Y-90548000D01*
X119187224Y-90548000D01*
X118835377Y-90196154D01*
X118821159Y-90178829D01*
X118803905Y-90164669D01*
X118724317Y-90085081D01*
X118727000Y-90071591D01*
X118727000Y-89928385D01*
X118699062Y-89787930D01*
X118644259Y-89655624D01*
X118641838Y-89652000D01*
X119012777Y-89652000D01*
X119464685Y-90103910D01*
X119478841Y-90121159D01*
X119547667Y-90177643D01*
X119582155Y-90196077D01*
X119626190Y-90219614D01*
X119711392Y-90245460D01*
X119799999Y-90254187D01*
X119822204Y-90252000D01*
X125838129Y-90252000D01*
X125860334Y-90254187D01*
X125882539Y-90252000D01*
X125948941Y-90245460D01*
X126034144Y-90219614D01*
X126112667Y-90177643D01*
X126181493Y-90121159D01*
X126195657Y-90103900D01*
X128159812Y-88139746D01*
X128140624Y-88183767D01*
X128095000Y-88393000D01*
X128095000Y-88943000D01*
X129053000Y-88943000D01*
X129053000Y-87602498D01*
X128885999Y-87475592D01*
X128790136Y-87509421D01*
X131179100Y-85120458D01*
X131179100Y-85228589D01*
X131268291Y-85676982D01*
X131443245Y-86099358D01*
X131697239Y-86479488D01*
X132020512Y-86802761D01*
X132400642Y-87056755D01*
X132823018Y-87231709D01*
X133271411Y-87320900D01*
X133728589Y-87320900D01*
X134176982Y-87231709D01*
X134599358Y-87056755D01*
X134979488Y-86802761D01*
X135302761Y-86479488D01*
X135556755Y-86099358D01*
X135731709Y-85676982D01*
X135820900Y-85228589D01*
X135820900Y-84771411D01*
X135731709Y-84323018D01*
X135556755Y-83900642D01*
X135302761Y-83520512D01*
X134979488Y-83197239D01*
X134599358Y-82943245D01*
X134176982Y-82768291D01*
X133728589Y-82679100D01*
X133620457Y-82679100D01*
X134019501Y-82280056D01*
X135483000Y-82280056D01*
X135483000Y-82639944D01*
X135553211Y-82992916D01*
X135690934Y-83325409D01*
X135890876Y-83624645D01*
X136145355Y-83879124D01*
X136444591Y-84079066D01*
X136777084Y-84216789D01*
X137130056Y-84287000D01*
X137489944Y-84287000D01*
X137662729Y-84252631D01*
X137536159Y-84442055D01*
X137447366Y-84656419D01*
X137402100Y-84883987D01*
X137402100Y-85116013D01*
X137447366Y-85343581D01*
X137536159Y-85557945D01*
X137665066Y-85750867D01*
X137829133Y-85914934D01*
X138022055Y-86043841D01*
X138236419Y-86132634D01*
X138463987Y-86177900D01*
X138696013Y-86177900D01*
X138923581Y-86132634D01*
X139137945Y-86043841D01*
X139330867Y-85914934D01*
X139494934Y-85750867D01*
X139623841Y-85557945D01*
X139712634Y-85343581D01*
X139757900Y-85116013D01*
X139757900Y-84883987D01*
X139712634Y-84656419D01*
X139623841Y-84442055D01*
X139494934Y-84249133D01*
X139330867Y-84085066D01*
X139137945Y-83956159D01*
X138923581Y-83867366D01*
X138696013Y-83822100D01*
X138531669Y-83822100D01*
X138729124Y-83624645D01*
X138929066Y-83325409D01*
X139066789Y-82992916D01*
X139137000Y-82639944D01*
X139137000Y-82280056D01*
X139066789Y-81927084D01*
X138929066Y-81594591D01*
X138729124Y-81295355D01*
X138474645Y-81040876D01*
X138175409Y-80840934D01*
X137842916Y-80703211D01*
X137489944Y-80633000D01*
X137130056Y-80633000D01*
X136777084Y-80703211D01*
X136444591Y-80840934D01*
X136145355Y-81040876D01*
X135890876Y-81295355D01*
X135690934Y-81594591D01*
X135553211Y-81927084D01*
X135483000Y-82280056D01*
X134019501Y-82280056D01*
X136703911Y-79595648D01*
X136721159Y-79581493D01*
X136777643Y-79512667D01*
X136819614Y-79434144D01*
X136845460Y-79348941D01*
X136854187Y-79260335D01*
X136852000Y-79238130D01*
X136852000Y-77295433D01*
X139923000Y-77295433D01*
X139923000Y-77704567D01*
X140002818Y-78105839D01*
X140159386Y-78483829D01*
X140386689Y-78824011D01*
X140675989Y-79113311D01*
X141016171Y-79340614D01*
X141394161Y-79497182D01*
X141795433Y-79577000D01*
X142204567Y-79577000D01*
X142605839Y-79497182D01*
X142983829Y-79340614D01*
X143324011Y-79113311D01*
X143613311Y-78824011D01*
X143840614Y-78483829D01*
X143997182Y-78105839D01*
X144077000Y-77704567D01*
X144077000Y-77295433D01*
X143997182Y-76894161D01*
X143840614Y-76516171D01*
X143613311Y-76175989D01*
X143324011Y-75886689D01*
X142983829Y-75659386D01*
X142605839Y-75502818D01*
X142204567Y-75423000D01*
X141795433Y-75423000D01*
X141394161Y-75502818D01*
X141016171Y-75659386D01*
X140675989Y-75886689D01*
X140386689Y-76175989D01*
X140159386Y-76516171D01*
X140002818Y-76894161D01*
X139923000Y-77295433D01*
X136852000Y-77295433D01*
X136852000Y-76572339D01*
X136863436Y-76564698D01*
X136964698Y-76463436D01*
X137044259Y-76344364D01*
X137099062Y-76212058D01*
X137127000Y-76071603D01*
X137127000Y-75928397D01*
X137099062Y-75787942D01*
X137044259Y-75655636D01*
X136964698Y-75536564D01*
X136863436Y-75435302D01*
X136744364Y-75355741D01*
X136612058Y-75300938D01*
X136501767Y-75279000D01*
X142986360Y-75279000D01*
X143236899Y-75303565D01*
X143464777Y-75372366D01*
X143674952Y-75484118D01*
X143859415Y-75634563D01*
X144011143Y-75817971D01*
X144124361Y-76027363D01*
X144194750Y-76254752D01*
X144221001Y-76504514D01*
X144221000Y-93486360D01*
X144196435Y-93736899D01*
X144127634Y-93964777D01*
X144015882Y-94174952D01*
X143865437Y-94359415D01*
X143682029Y-94511143D01*
X143472637Y-94624361D01*
X143245247Y-94694751D01*
X142995495Y-94721000D01*
X137947002Y-94721000D01*
X137947002Y-94557504D01*
X138114001Y-94684408D01*
X138317197Y-94612702D01*
X138497408Y-94497014D01*
X138651587Y-94348391D01*
X138773809Y-94172545D01*
X138859376Y-93976233D01*
X138905000Y-93767000D01*
X138905000Y-93367000D01*
X137947000Y-93367000D01*
X137947000Y-93387000D01*
X137693000Y-93387000D01*
X137693000Y-93367000D01*
X136735000Y-93367000D01*
X136735000Y-93767000D01*
X136780624Y-93976233D01*
X136866191Y-94172545D01*
X136988413Y-94348391D01*
X137142592Y-94497014D01*
X137322803Y-94612702D01*
X137525999Y-94684408D01*
X137692998Y-94557504D01*
X137692998Y-94721000D01*
X129307002Y-94721000D01*
X129307002Y-94557504D01*
X129474001Y-94684408D01*
X129677197Y-94612702D01*
X129857408Y-94497014D01*
X130011587Y-94348391D01*
X130133809Y-94172545D01*
X130219376Y-93976233D01*
X130265000Y-93767000D01*
X130265000Y-93367000D01*
X129307000Y-93367000D01*
X129307000Y-93387000D01*
X129053000Y-93387000D01*
X129053000Y-93367000D01*
X128095000Y-93367000D01*
X128095000Y-93767000D01*
X128140624Y-93976233D01*
X128226191Y-94172545D01*
X128348413Y-94348391D01*
X128502592Y-94497014D01*
X128682803Y-94612702D01*
X128885999Y-94684408D01*
X129052998Y-94557504D01*
X129052998Y-94721000D01*
X109243148Y-94721000D01*
X109244265Y-94719328D01*
X109299068Y-94587022D01*
X109327006Y-94446567D01*
X109327006Y-94303361D01*
X109299068Y-94162906D01*
X109244265Y-94030600D01*
X109164704Y-93911528D01*
X109063442Y-93810266D01*
X108944370Y-93730705D01*
X108812064Y-93675902D01*
X108693327Y-93652284D01*
X108090581Y-93049538D01*
X108072516Y-93027526D01*
X107984657Y-92955421D01*
X107884418Y-92901843D01*
X107820312Y-92882397D01*
X107775653Y-92868849D01*
X107720587Y-92863426D01*
X107690878Y-92860500D01*
X107690873Y-92860500D01*
X107662542Y-92857710D01*
X107634211Y-92860500D01*
X101382525Y-92860500D01*
X101281864Y-92793241D01*
X101149558Y-92738438D01*
X101009103Y-92710500D01*
X100865897Y-92710500D01*
X100725442Y-92738438D01*
X100593136Y-92793241D01*
X100474064Y-92872802D01*
X100372802Y-92974064D01*
X100293241Y-93093136D01*
X100238438Y-93225442D01*
X100210500Y-93365897D01*
X100210500Y-93509103D01*
X100238438Y-93649558D01*
X100293241Y-93781864D01*
X100372802Y-93900936D01*
X100474064Y-94002198D01*
X100593136Y-94081759D01*
X100725442Y-94136562D01*
X100865897Y-94164500D01*
X101009103Y-94164500D01*
X101149558Y-94136562D01*
X101281864Y-94081759D01*
X101382525Y-94014500D01*
X107423541Y-94014500D01*
X107877326Y-94468285D01*
X107900944Y-94587022D01*
X107955747Y-94719328D01*
X107956864Y-94721000D01*
X87885591Y-94721000D01*
X87947468Y-94701297D01*
X88303927Y-94510766D01*
X88490003Y-94169609D01*
X87000000Y-92679605D01*
X85509997Y-94169609D01*
X85696073Y-94510766D01*
X86102745Y-94721000D01*
X86013640Y-94721000D01*
X85763101Y-94696435D01*
X85535223Y-94627634D01*
X85325048Y-94515882D01*
X85140585Y-94365437D01*
X84988857Y-94182029D01*
X84875639Y-93972637D01*
X84805249Y-93745247D01*
X84779000Y-93495495D01*
X84779000Y-93385591D01*
X84798703Y-93447468D01*
X84989234Y-93803927D01*
X85330391Y-93990003D01*
X86820395Y-92500000D01*
X87179605Y-92500000D01*
X88669609Y-93990003D01*
X89010766Y-93803927D01*
X89226513Y-93386591D01*
X89319720Y-93063397D01*
X93708000Y-93063397D01*
X93708000Y-93206603D01*
X93735938Y-93347058D01*
X93790741Y-93479364D01*
X93870302Y-93598436D01*
X93971564Y-93699698D01*
X94090636Y-93779259D01*
X94222942Y-93834062D01*
X94363397Y-93862000D01*
X94506603Y-93862000D01*
X94647058Y-93834062D01*
X94779364Y-93779259D01*
X94898436Y-93699698D01*
X94999698Y-93598436D01*
X95007339Y-93587000D01*
X97342795Y-93587000D01*
X97365000Y-93589187D01*
X97387205Y-93587000D01*
X97453607Y-93580460D01*
X97538810Y-93554614D01*
X97617333Y-93512643D01*
X97686159Y-93456159D01*
X97700323Y-93438900D01*
X99414907Y-91724317D01*
X99428397Y-91727000D01*
X99571603Y-91727000D01*
X99712058Y-91699062D01*
X99844364Y-91644259D01*
X99963436Y-91564698D01*
X100064698Y-91463436D01*
X100144259Y-91344364D01*
X100199062Y-91212058D01*
X100227000Y-91071603D01*
X100227000Y-90928397D01*
X100199062Y-90787942D01*
X100144259Y-90655636D01*
X100064698Y-90536564D01*
X99963436Y-90435302D01*
X99844364Y-90355741D01*
X99712058Y-90300938D01*
X99571603Y-90273000D01*
X99428397Y-90273000D01*
X99287942Y-90300938D01*
X99155636Y-90355741D01*
X99036564Y-90435302D01*
X98935302Y-90536564D01*
X98855741Y-90655636D01*
X98800938Y-90787942D01*
X98773000Y-90928397D01*
X98773000Y-91071603D01*
X98775683Y-91085093D01*
X97177777Y-92683000D01*
X95007339Y-92683000D01*
X94999698Y-92671564D01*
X94898436Y-92570302D01*
X94779364Y-92490741D01*
X94647058Y-92435938D01*
X94506603Y-92408000D01*
X94363397Y-92408000D01*
X94222942Y-92435938D01*
X94090636Y-92490741D01*
X93971564Y-92570302D01*
X93870302Y-92671564D01*
X93790741Y-92790636D01*
X93735938Y-92922942D01*
X93708000Y-93063397D01*
X89319720Y-93063397D01*
X89356696Y-92935185D01*
X89396313Y-92467054D01*
X89343842Y-92000189D01*
X89201297Y-91552532D01*
X89010766Y-91196073D01*
X88669609Y-91009997D01*
X87179605Y-92500000D01*
X86820395Y-92500000D01*
X85330391Y-91009997D01*
X84989234Y-91196073D01*
X84779000Y-91602745D01*
X84779000Y-90830391D01*
X85509997Y-90830391D01*
X87000000Y-92320395D01*
X88490003Y-90830391D01*
X88303927Y-90489234D01*
X87886591Y-90273487D01*
X87435185Y-90143304D01*
X86967054Y-90103687D01*
X86500189Y-90156158D01*
X86052532Y-90298703D01*
X85696073Y-90489234D01*
X85509997Y-90830391D01*
X84779000Y-90830391D01*
X84779000Y-84883987D01*
X89242100Y-84883987D01*
X89242100Y-85116013D01*
X89287366Y-85343581D01*
X89376159Y-85557945D01*
X89505066Y-85750867D01*
X89669133Y-85914934D01*
X89862055Y-86043841D01*
X90076419Y-86132634D01*
X90303987Y-86177900D01*
X90536013Y-86177900D01*
X90763581Y-86132634D01*
X90977945Y-86043841D01*
X91170867Y-85914934D01*
X91334934Y-85750867D01*
X91463841Y-85557945D01*
X91552634Y-85343581D01*
X91597900Y-85116013D01*
X91597900Y-84883987D01*
X91552634Y-84656419D01*
X91463841Y-84442055D01*
X91334934Y-84249133D01*
X91170867Y-84085066D01*
X90977945Y-83956159D01*
X90763581Y-83867366D01*
X90536013Y-83822100D01*
X90303987Y-83822100D01*
X90076419Y-83867366D01*
X89862055Y-83956159D01*
X89669133Y-84085066D01*
X89505066Y-84249133D01*
X89376159Y-84442055D01*
X89287366Y-84656419D01*
X89242100Y-84883987D01*
X84779000Y-84883987D01*
X84779000Y-79169609D01*
X85509997Y-79169609D01*
X85696073Y-79510766D01*
X86113409Y-79726513D01*
X86564815Y-79856696D01*
X87032946Y-79896313D01*
X87499811Y-79843842D01*
X87825746Y-79740056D01*
X91133000Y-79740056D01*
X91133000Y-80099944D01*
X91203211Y-80452916D01*
X91340934Y-80785409D01*
X91540876Y-81084645D01*
X91795355Y-81339124D01*
X92094591Y-81539066D01*
X92427084Y-81676789D01*
X92780056Y-81747000D01*
X93139944Y-81747000D01*
X93232110Y-81728667D01*
X91896100Y-83064677D01*
X91878841Y-83078841D01*
X91822358Y-83147667D01*
X91780386Y-83226191D01*
X91754540Y-83311393D01*
X91745813Y-83400000D01*
X91748000Y-83422205D01*
X91748001Y-88977785D01*
X91745813Y-89000000D01*
X91754540Y-89088607D01*
X91780386Y-89173809D01*
X91817416Y-89243088D01*
X91822358Y-89252333D01*
X91878842Y-89321159D01*
X91896096Y-89335319D01*
X92864681Y-90303905D01*
X92878841Y-90321159D01*
X92947667Y-90377643D01*
X93026190Y-90419614D01*
X93111392Y-90445460D01*
X93200000Y-90454187D01*
X93222205Y-90452000D01*
X97427661Y-90452000D01*
X97435302Y-90463436D01*
X97536564Y-90564698D01*
X97655636Y-90644259D01*
X97787942Y-90699062D01*
X97928397Y-90727000D01*
X98071603Y-90727000D01*
X98212058Y-90699062D01*
X98344364Y-90644259D01*
X98463436Y-90564698D01*
X98564698Y-90463436D01*
X98644259Y-90344364D01*
X98699062Y-90212058D01*
X98727000Y-90071603D01*
X98727000Y-89928397D01*
X98699062Y-89787942D01*
X98644259Y-89655636D01*
X98564698Y-89536564D01*
X98463436Y-89435302D01*
X98344364Y-89355741D01*
X98212058Y-89300938D01*
X98071603Y-89273000D01*
X97928397Y-89273000D01*
X97787942Y-89300938D01*
X97655636Y-89355741D01*
X97536564Y-89435302D01*
X97435302Y-89536564D01*
X97427661Y-89548000D01*
X93387224Y-89548000D01*
X92652000Y-88812777D01*
X92652000Y-88141830D01*
X92655636Y-88144259D01*
X92787942Y-88199062D01*
X92928397Y-88227000D01*
X93071603Y-88227000D01*
X93085093Y-88224317D01*
X93564680Y-88703904D01*
X93578840Y-88721158D01*
X93647666Y-88777642D01*
X93726189Y-88819613D01*
X93811391Y-88845459D01*
X93899999Y-88854186D01*
X93922204Y-88851999D01*
X103177796Y-88851999D01*
X103200001Y-88854186D01*
X103222206Y-88851999D01*
X103288608Y-88845459D01*
X103373811Y-88819613D01*
X103452334Y-88777642D01*
X103521160Y-88721158D01*
X103535324Y-88703899D01*
X106914908Y-85324317D01*
X106928397Y-85327000D01*
X107071603Y-85327000D01*
X107212058Y-85299062D01*
X107344364Y-85244259D01*
X107463436Y-85164698D01*
X107564698Y-85063436D01*
X107644259Y-84944364D01*
X107669267Y-84883987D01*
X108242100Y-84883987D01*
X108242100Y-85116013D01*
X108287366Y-85343581D01*
X108376159Y-85557945D01*
X108505066Y-85750867D01*
X108669133Y-85914934D01*
X108862055Y-86043841D01*
X109076419Y-86132634D01*
X109303987Y-86177900D01*
X109536013Y-86177900D01*
X109763581Y-86132634D01*
X109977945Y-86043841D01*
X110170867Y-85914934D01*
X110334934Y-85750867D01*
X110463841Y-85557945D01*
X110552634Y-85343581D01*
X110597900Y-85116013D01*
X110597900Y-84883987D01*
X110575508Y-84771411D01*
X112179100Y-84771411D01*
X112179100Y-85228589D01*
X112268291Y-85676982D01*
X112443245Y-86099358D01*
X112697239Y-86479488D01*
X113020512Y-86802761D01*
X113400642Y-87056755D01*
X113823018Y-87231709D01*
X114271411Y-87320900D01*
X114728589Y-87320900D01*
X115176982Y-87231709D01*
X115599358Y-87056755D01*
X115979488Y-86802761D01*
X116302761Y-86479488D01*
X116556755Y-86099358D01*
X116731709Y-85676982D01*
X116820900Y-85228589D01*
X116820900Y-84771411D01*
X116731709Y-84323018D01*
X116556755Y-83900642D01*
X116302761Y-83520512D01*
X115979488Y-83197239D01*
X115599358Y-82943245D01*
X115176982Y-82768291D01*
X114728589Y-82679100D01*
X114271411Y-82679100D01*
X113823018Y-82768291D01*
X113400642Y-82943245D01*
X113020512Y-83197239D01*
X112697239Y-83520512D01*
X112443245Y-83900642D01*
X112268291Y-84323018D01*
X112179100Y-84771411D01*
X110575508Y-84771411D01*
X110552634Y-84656419D01*
X110463841Y-84442055D01*
X110334934Y-84249133D01*
X110170867Y-84085066D01*
X109977945Y-83956159D01*
X109763581Y-83867366D01*
X109536013Y-83822100D01*
X109303987Y-83822100D01*
X109076419Y-83867366D01*
X108862055Y-83956159D01*
X108669133Y-84085066D01*
X108505066Y-84249133D01*
X108376159Y-84442055D01*
X108287366Y-84656419D01*
X108242100Y-84883987D01*
X107669267Y-84883987D01*
X107699062Y-84812058D01*
X107727000Y-84671603D01*
X107727000Y-84528397D01*
X107699062Y-84387942D01*
X107644259Y-84255636D01*
X107564698Y-84136564D01*
X107463436Y-84035302D01*
X107344364Y-83955741D01*
X107212058Y-83900938D01*
X107071603Y-83873000D01*
X106928397Y-83873000D01*
X106787942Y-83900938D01*
X106655636Y-83955741D01*
X106536564Y-84035302D01*
X106435302Y-84136564D01*
X106355741Y-84255636D01*
X106300938Y-84387942D01*
X106273000Y-84528397D01*
X106273000Y-84671603D01*
X106275683Y-84685092D01*
X103012778Y-87947999D01*
X94087223Y-87947999D01*
X93724317Y-87585093D01*
X93727000Y-87571603D01*
X93727000Y-87428397D01*
X93699062Y-87287942D01*
X93644259Y-87155636D01*
X93564698Y-87036564D01*
X93463436Y-86935302D01*
X93344364Y-86855741D01*
X93212058Y-86800938D01*
X93071603Y-86773000D01*
X92928397Y-86773000D01*
X92787942Y-86800938D01*
X92655636Y-86855741D01*
X92652000Y-86858170D01*
X92652000Y-84771411D01*
X93179100Y-84771411D01*
X93179100Y-85228589D01*
X93268291Y-85676982D01*
X93443245Y-86099358D01*
X93697239Y-86479488D01*
X94020512Y-86802761D01*
X94400642Y-87056755D01*
X94823018Y-87231709D01*
X95271411Y-87320900D01*
X95728589Y-87320900D01*
X96176982Y-87231709D01*
X96599358Y-87056755D01*
X96979488Y-86802761D01*
X97302761Y-86479488D01*
X97556755Y-86099358D01*
X97731709Y-85676982D01*
X97820900Y-85228589D01*
X97820900Y-84771411D01*
X97731709Y-84323018D01*
X97556755Y-83900642D01*
X97302761Y-83520512D01*
X96979488Y-83197239D01*
X96599358Y-82943245D01*
X96176982Y-82768291D01*
X95728589Y-82679100D01*
X95271411Y-82679100D01*
X94823018Y-82768291D01*
X94400642Y-82943245D01*
X94020512Y-83197239D01*
X93697239Y-83520512D01*
X93443245Y-83900642D01*
X93268291Y-84323018D01*
X93179100Y-84771411D01*
X92652000Y-84771411D01*
X92652000Y-83587223D01*
X96303905Y-79935319D01*
X96312339Y-79928397D01*
X97273000Y-79928397D01*
X97273000Y-80071603D01*
X97300938Y-80212058D01*
X97355741Y-80344364D01*
X97435302Y-80463436D01*
X97536564Y-80564698D01*
X97655636Y-80644259D01*
X97787942Y-80699062D01*
X97928397Y-80727000D01*
X98071603Y-80727000D01*
X98212058Y-80699062D01*
X98344364Y-80644259D01*
X98463436Y-80564698D01*
X98564698Y-80463436D01*
X98644259Y-80344364D01*
X98699062Y-80212058D01*
X98727000Y-80071603D01*
X98727000Y-79928397D01*
X98718451Y-79885417D01*
X99685418Y-78918451D01*
X99728397Y-78927000D01*
X99871603Y-78927000D01*
X100012058Y-78899062D01*
X100144364Y-78844259D01*
X100263436Y-78764698D01*
X100364698Y-78663436D01*
X100444259Y-78544364D01*
X100499062Y-78412058D01*
X100527000Y-78271603D01*
X100527000Y-78128397D01*
X100499062Y-77987942D01*
X100444259Y-77855636D01*
X100364698Y-77736564D01*
X100263436Y-77635302D01*
X100144364Y-77555741D01*
X100012058Y-77500938D01*
X99871603Y-77473000D01*
X99728397Y-77473000D01*
X99587942Y-77500938D01*
X99455636Y-77555741D01*
X99336564Y-77635302D01*
X99235302Y-77736564D01*
X99155741Y-77855636D01*
X99100938Y-77987942D01*
X99073000Y-78128397D01*
X99073000Y-78271603D01*
X99081549Y-78314582D01*
X98114583Y-79281549D01*
X98071603Y-79273000D01*
X97928397Y-79273000D01*
X97787942Y-79300938D01*
X97655636Y-79355741D01*
X97536564Y-79435302D01*
X97435302Y-79536564D01*
X97355741Y-79655636D01*
X97300938Y-79787942D01*
X97273000Y-79928397D01*
X96312339Y-79928397D01*
X96321159Y-79921159D01*
X96377643Y-79852333D01*
X96419614Y-79773810D01*
X96429853Y-79740056D01*
X96445460Y-79688608D01*
X96454187Y-79600000D01*
X96452000Y-79577795D01*
X96452000Y-78372339D01*
X96463436Y-78364698D01*
X96564698Y-78263436D01*
X96644259Y-78144364D01*
X96699062Y-78012058D01*
X96727000Y-77871603D01*
X96727000Y-77728397D01*
X96699062Y-77587942D01*
X96644259Y-77455636D01*
X96564698Y-77336564D01*
X96463436Y-77235302D01*
X96344364Y-77155741D01*
X96212058Y-77100938D01*
X96071603Y-77073000D01*
X95928397Y-77073000D01*
X95787942Y-77100938D01*
X95655636Y-77155741D01*
X95536564Y-77235302D01*
X95435302Y-77336564D01*
X95355741Y-77455636D01*
X95300938Y-77587942D01*
X95273000Y-77728397D01*
X95273000Y-77871603D01*
X95300938Y-78012058D01*
X95355741Y-78144364D01*
X95435302Y-78263436D01*
X95536564Y-78364698D01*
X95548000Y-78372339D01*
X95548001Y-79412775D01*
X94768667Y-80192109D01*
X94787000Y-80099944D01*
X94787000Y-79740056D01*
X94716789Y-79387084D01*
X94579066Y-79054591D01*
X94379124Y-78755355D01*
X94124645Y-78500876D01*
X93825409Y-78300934D01*
X93492916Y-78163211D01*
X93139944Y-78093000D01*
X92780056Y-78093000D01*
X92427084Y-78163211D01*
X92094591Y-78300934D01*
X91795355Y-78500876D01*
X91540876Y-78755355D01*
X91340934Y-79054591D01*
X91203211Y-79387084D01*
X91133000Y-79740056D01*
X87825746Y-79740056D01*
X87947468Y-79701297D01*
X88303927Y-79510766D01*
X88490003Y-79169609D01*
X87000000Y-77679605D01*
X85509997Y-79169609D01*
X84779000Y-79169609D01*
X84779000Y-78385591D01*
X84798703Y-78447468D01*
X84989234Y-78803927D01*
X85330391Y-78990003D01*
X86820395Y-77500000D01*
X87179605Y-77500000D01*
X88669609Y-78990003D01*
X89010766Y-78803927D01*
X89226513Y-78386591D01*
X89356696Y-77935185D01*
X89396313Y-77467054D01*
X89343842Y-77000189D01*
X89201297Y-76552532D01*
X89010766Y-76196073D01*
X88669609Y-76009997D01*
X87179605Y-77500000D01*
X86820395Y-77500000D01*
X85330391Y-76009997D01*
X84989234Y-76196073D01*
X84779000Y-76602745D01*
X84779000Y-76513640D01*
X84803565Y-76263101D01*
X84872366Y-76035223D01*
X84984118Y-75825048D01*
X85134563Y-75640585D01*
X85317971Y-75488857D01*
X85527363Y-75375639D01*
X85754752Y-75305250D01*
X86004505Y-75279000D01*
X86114409Y-75279000D01*
X86052532Y-75298703D01*
%TA.AperFunction,Conductor*%
D18*
G36*
X86052532Y-75298703D02*
G01*
X85696073Y-75489234D01*
X85509997Y-75830391D01*
X87000000Y-77320395D01*
X88490003Y-75830391D01*
X88303927Y-75489234D01*
X87897255Y-75279000D01*
X117098233Y-75279000D01*
X116987942Y-75300938D01*
X116855636Y-75355741D01*
X116736564Y-75435302D01*
X116635302Y-75536564D01*
X116627661Y-75548000D01*
X106022204Y-75548000D01*
X105999999Y-75545813D01*
X105911392Y-75554540D01*
X105891562Y-75560556D01*
X105826190Y-75580386D01*
X105747667Y-75622357D01*
X105678841Y-75678841D01*
X105664686Y-75696089D01*
X101696100Y-79664677D01*
X101678841Y-79678841D01*
X101622357Y-79747668D01*
X101593884Y-79800938D01*
X101580386Y-79826191D01*
X101554540Y-79911393D01*
X101545813Y-80000000D01*
X101548000Y-80022205D01*
X101548001Y-84277793D01*
X101545813Y-84300008D01*
X101548732Y-84329647D01*
X101494934Y-84249133D01*
X101330867Y-84085066D01*
X101137945Y-83956159D01*
X100923581Y-83867366D01*
X100696013Y-83822100D01*
X100531669Y-83822100D01*
X100729124Y-83624645D01*
X100929066Y-83325409D01*
X101066789Y-82992916D01*
X101137000Y-82639944D01*
X101137000Y-82280056D01*
X101066789Y-81927084D01*
X100929066Y-81594591D01*
X100729124Y-81295355D01*
X100474645Y-81040876D01*
X100175409Y-80840934D01*
X99842916Y-80703211D01*
X99489944Y-80633000D01*
X99130056Y-80633000D01*
X98777084Y-80703211D01*
X98444591Y-80840934D01*
X98145355Y-81040876D01*
X97890876Y-81295355D01*
X97690934Y-81594591D01*
X97553211Y-81927084D01*
X97483000Y-82280056D01*
X97483000Y-82639944D01*
X97553211Y-82992916D01*
X97690934Y-83325409D01*
X97890876Y-83624645D01*
X98145355Y-83879124D01*
X98444591Y-84079066D01*
X98777084Y-84216789D01*
X99130056Y-84287000D01*
X99489944Y-84287000D01*
X99662729Y-84252631D01*
X99536159Y-84442055D01*
X99447366Y-84656419D01*
X99402100Y-84883987D01*
X99402100Y-85116013D01*
X99447366Y-85343581D01*
X99536159Y-85557945D01*
X99665066Y-85750867D01*
X99829133Y-85914934D01*
X100022055Y-86043841D01*
X100236419Y-86132634D01*
X100463987Y-86177900D01*
X100696013Y-86177900D01*
X100923581Y-86132634D01*
X101137945Y-86043841D01*
X101330867Y-85914934D01*
X101494934Y-85750867D01*
X101623841Y-85557945D01*
X101712634Y-85343581D01*
X101757900Y-85116013D01*
X101757900Y-84883987D01*
X101712634Y-84656419D01*
X101709414Y-84648645D01*
X101775675Y-84714907D01*
X101772992Y-84728397D01*
X101772992Y-84871603D01*
X101800930Y-85012058D01*
X101855733Y-85144364D01*
X101935294Y-85263436D01*
X102036556Y-85364698D01*
X102155628Y-85444259D01*
X102287934Y-85499062D01*
X102428389Y-85527000D01*
X102571595Y-85527000D01*
X102712050Y-85499062D01*
X102844356Y-85444259D01*
X102963428Y-85364698D01*
X103064690Y-85263436D01*
X103144251Y-85144364D01*
X103199054Y-85012058D01*
X103226992Y-84871603D01*
X103226992Y-84728397D01*
X103199054Y-84587942D01*
X103144251Y-84455636D01*
X103126051Y-84428397D01*
X103273000Y-84428397D01*
X103273000Y-84571603D01*
X103300938Y-84712058D01*
X103355741Y-84844364D01*
X103435302Y-84963436D01*
X103536564Y-85064698D01*
X103655636Y-85144259D01*
X103787942Y-85199062D01*
X103928397Y-85227000D01*
X104071603Y-85227000D01*
X104212058Y-85199062D01*
X104344364Y-85144259D01*
X104463436Y-85064698D01*
X104564698Y-84963436D01*
X104644259Y-84844364D01*
X104699062Y-84712058D01*
X104727000Y-84571603D01*
X104727000Y-84428397D01*
X104724317Y-84414907D01*
X105303915Y-83835309D01*
X105321169Y-83821149D01*
X105377653Y-83752323D01*
X105419624Y-83673800D01*
X105445470Y-83588597D01*
X105446927Y-83573809D01*
X105454197Y-83499990D01*
X105452010Y-83477785D01*
X105452010Y-82280056D01*
X116483000Y-82280056D01*
X116483000Y-82639944D01*
X116553211Y-82992916D01*
X116690934Y-83325409D01*
X116890876Y-83624645D01*
X117145355Y-83879124D01*
X117444591Y-84079066D01*
X117777084Y-84216789D01*
X118130056Y-84287000D01*
X118489944Y-84287000D01*
X118662729Y-84252631D01*
X118536159Y-84442055D01*
X118447366Y-84656419D01*
X118402100Y-84883987D01*
X118402100Y-85116013D01*
X118447366Y-85343581D01*
X118536159Y-85557945D01*
X118665066Y-85750867D01*
X118829133Y-85914934D01*
X119022055Y-86043841D01*
X119236419Y-86132634D01*
X119463987Y-86177900D01*
X119696013Y-86177900D01*
X119923581Y-86132634D01*
X120137945Y-86043841D01*
X120330867Y-85914934D01*
X120494934Y-85750867D01*
X120623841Y-85557945D01*
X120712634Y-85343581D01*
X120757900Y-85116013D01*
X120757900Y-84883987D01*
X120712634Y-84656419D01*
X120623841Y-84442055D01*
X120494934Y-84249133D01*
X120330867Y-84085066D01*
X120137945Y-83956159D01*
X119923581Y-83867366D01*
X119696013Y-83822100D01*
X119531669Y-83822100D01*
X119729124Y-83624645D01*
X119929066Y-83325409D01*
X120066789Y-82992916D01*
X120137000Y-82639944D01*
X120137000Y-82280056D01*
X120066789Y-81927084D01*
X119929066Y-81594591D01*
X119729124Y-81295355D01*
X119474645Y-81040876D01*
X119175409Y-80840934D01*
X118842916Y-80703211D01*
X118489944Y-80633000D01*
X118130056Y-80633000D01*
X117777084Y-80703211D01*
X117444591Y-80840934D01*
X117145355Y-81040876D01*
X116890876Y-81295355D01*
X116690934Y-81594591D01*
X116553211Y-81927084D01*
X116483000Y-82280056D01*
X105452010Y-82280056D01*
X105452010Y-81072339D01*
X105463446Y-81064698D01*
X105564708Y-80963436D01*
X105644269Y-80844364D01*
X105699072Y-80712058D01*
X105727010Y-80571603D01*
X105727010Y-80428397D01*
X105699072Y-80287942D01*
X105644269Y-80155636D01*
X105564708Y-80036564D01*
X105463446Y-79935302D01*
X105344374Y-79855741D01*
X105212068Y-79800938D01*
X105071613Y-79773000D01*
X104928407Y-79773000D01*
X104787952Y-79800938D01*
X104655646Y-79855741D01*
X104536574Y-79935302D01*
X104435312Y-80036564D01*
X104355751Y-80155636D01*
X104300948Y-80287942D01*
X104273010Y-80428397D01*
X104273010Y-80571603D01*
X104300948Y-80712058D01*
X104355751Y-80844364D01*
X104435312Y-80963436D01*
X104536574Y-81064698D01*
X104548010Y-81072339D01*
X104548011Y-83312765D01*
X104085093Y-83775683D01*
X104071603Y-83773000D01*
X103928397Y-83773000D01*
X103787942Y-83800938D01*
X103655636Y-83855741D01*
X103536564Y-83935302D01*
X103435302Y-84036564D01*
X103355741Y-84155636D01*
X103300938Y-84287942D01*
X103273000Y-84428397D01*
X103126051Y-84428397D01*
X103064690Y-84336564D01*
X102963428Y-84235302D01*
X102844356Y-84155741D01*
X102712050Y-84100938D01*
X102571595Y-84073000D01*
X102452000Y-84073000D01*
X102452000Y-80187223D01*
X102899167Y-79740056D01*
X110133000Y-79740056D01*
X110133000Y-80099944D01*
X110203211Y-80452916D01*
X110340934Y-80785409D01*
X110540876Y-81084645D01*
X110795355Y-81339124D01*
X111094591Y-81539066D01*
X111427084Y-81676789D01*
X111780056Y-81747000D01*
X112139944Y-81747000D01*
X112492916Y-81676789D01*
X112825409Y-81539066D01*
X113124645Y-81339124D01*
X113379124Y-81084645D01*
X113579066Y-80785409D01*
X113716789Y-80452916D01*
X113787000Y-80099944D01*
X113787000Y-79740056D01*
X129133000Y-79740056D01*
X129133000Y-80099944D01*
X129203211Y-80452916D01*
X129340934Y-80785409D01*
X129540876Y-81084645D01*
X129795355Y-81339124D01*
X130094591Y-81539066D01*
X130427084Y-81676789D01*
X130780056Y-81747000D01*
X131139944Y-81747000D01*
X131492916Y-81676789D01*
X131825409Y-81539066D01*
X132124645Y-81339124D01*
X132379124Y-81084645D01*
X132579066Y-80785409D01*
X132716789Y-80452916D01*
X132787000Y-80099944D01*
X132787000Y-79740056D01*
X132716789Y-79387084D01*
X132579066Y-79054591D01*
X132379124Y-78755355D01*
X132124645Y-78500876D01*
X131825409Y-78300934D01*
X131492916Y-78163211D01*
X131139944Y-78093000D01*
X130780056Y-78093000D01*
X130427084Y-78163211D01*
X130094591Y-78300934D01*
X129795355Y-78500876D01*
X129540876Y-78755355D01*
X129340934Y-79054591D01*
X129203211Y-79387084D01*
X129133000Y-79740056D01*
X113787000Y-79740056D01*
X113716789Y-79387084D01*
X113579066Y-79054591D01*
X113379124Y-78755355D01*
X113124645Y-78500876D01*
X112825409Y-78300934D01*
X112492916Y-78163211D01*
X112139944Y-78093000D01*
X111780056Y-78093000D01*
X111427084Y-78163211D01*
X111094591Y-78300934D01*
X110795355Y-78500876D01*
X110540876Y-78755355D01*
X110340934Y-79054591D01*
X110203211Y-79387084D01*
X110133000Y-79740056D01*
X102899167Y-79740056D01*
X106187225Y-76452000D01*
X116627661Y-76452000D01*
X116635302Y-76463436D01*
X116736564Y-76564698D01*
X116855636Y-76644259D01*
X116987942Y-76699062D01*
X117128397Y-76727000D01*
X117271603Y-76727000D01*
X117412058Y-76699062D01*
X117544364Y-76644259D01*
X117663436Y-76564698D01*
X117764698Y-76463436D01*
X117844259Y-76344364D01*
X117899062Y-76212058D01*
X117927000Y-76071603D01*
X117927000Y-75928397D01*
X117899062Y-75787942D01*
X117844259Y-75655636D01*
X117764698Y-75536564D01*
X117663436Y-75435302D01*
X117544364Y-75355741D01*
X117412058Y-75300938D01*
X117301767Y-75279000D01*
X136298233Y-75279000D01*
X136187942Y-75300938D01*
X136055636Y-75355741D01*
X135936564Y-75435302D01*
X135835302Y-75536564D01*
X135755741Y-75655636D01*
X135700938Y-75787942D01*
X135673000Y-75928397D01*
X135673000Y-76071603D01*
X135700938Y-76212058D01*
X135755741Y-76344364D01*
X135835302Y-76463436D01*
X135936564Y-76564698D01*
X135948000Y-76572339D01*
X135948001Y-79073108D01*
X132792012Y-82229099D01*
X132409131Y-82229099D01*
X132386926Y-82226912D01*
X132298319Y-82235639D01*
X132278489Y-82241655D01*
X132213117Y-82261485D01*
X132134594Y-82303456D01*
X132065768Y-82359940D01*
X132051612Y-82377189D01*
X130877199Y-83551604D01*
X130859940Y-83565768D01*
X130811622Y-83624645D01*
X130803457Y-83634594D01*
X130761485Y-83713118D01*
X130735639Y-83798320D01*
X130726912Y-83886927D01*
X130729099Y-83909133D01*
X130729100Y-84292010D01*
X129464319Y-85556791D01*
X129552634Y-85343581D01*
X129597900Y-85116013D01*
X129597900Y-84883987D01*
X129552634Y-84656419D01*
X129463841Y-84442055D01*
X129334934Y-84249133D01*
X129170867Y-84085066D01*
X128977945Y-83956159D01*
X128763581Y-83867366D01*
X128536013Y-83822100D01*
X128303987Y-83822100D01*
X128076419Y-83867366D01*
X127862055Y-83956159D01*
X127669133Y-84085066D01*
X127505066Y-84249133D01*
X127376159Y-84442055D01*
X127287366Y-84656419D01*
X127242100Y-84883987D01*
X127242100Y-85116013D01*
X127287366Y-85343581D01*
X127376159Y-85557945D01*
X127505066Y-85750867D01*
X127669133Y-85914934D01*
X127862055Y-86043841D01*
X128076419Y-86132634D01*
X128303987Y-86177900D01*
X128536013Y-86177900D01*
X128763581Y-86132634D01*
X128976792Y-86044319D01*
X126378840Y-88642271D01*
X126444259Y-88544364D01*
X126499062Y-88412058D01*
X126527000Y-88271603D01*
X126527000Y-88128397D01*
X126499062Y-87987942D01*
X126444259Y-87855636D01*
X126364698Y-87736564D01*
X126263436Y-87635302D01*
X126144364Y-87555741D01*
X126012058Y-87500938D01*
X125871603Y-87473000D01*
X125728397Y-87473000D01*
X125587942Y-87500938D01*
X125455636Y-87555741D01*
X125336564Y-87635302D01*
X125235302Y-87736564D01*
X125210956Y-87773000D01*
X116076869Y-87773000D01*
X115816754Y-87512885D01*
X115803381Y-87496591D01*
X115738362Y-87443231D01*
X115664182Y-87403581D01*
X115583693Y-87379164D01*
X115520964Y-87372986D01*
X115520953Y-87372986D01*
X115499986Y-87370921D01*
X115479019Y-87372986D01*
X110789058Y-87372986D01*
X110764712Y-87336550D01*
X110663450Y-87235288D01*
X110544378Y-87155727D01*
X110412072Y-87100924D01*
X110271617Y-87072986D01*
X110128411Y-87072986D01*
X109987956Y-87100924D01*
X109855650Y-87155727D01*
X109736578Y-87235288D01*
X109635316Y-87336550D01*
X109555755Y-87455622D01*
X109500952Y-87587928D01*
X109473014Y-87728383D01*
X109473014Y-87871589D01*
X109500952Y-88012044D01*
X109555755Y-88144350D01*
X109635316Y-88263422D01*
X109736578Y-88364684D01*
X109748014Y-88372325D01*
X109748015Y-92027641D01*
X109736564Y-92035292D01*
X109635302Y-92136554D01*
X109555741Y-92255626D01*
X109500938Y-92387932D01*
X109473000Y-92528387D01*
X109473000Y-92671593D01*
X109500938Y-92812048D01*
X109555741Y-92944354D01*
X109635302Y-93063426D01*
X109736564Y-93164688D01*
X109855636Y-93244249D01*
X109987942Y-93299052D01*
X110128397Y-93326990D01*
X110271603Y-93326990D01*
X110412058Y-93299052D01*
X110544364Y-93244249D01*
X110663436Y-93164688D01*
X110743899Y-93084225D01*
X110700938Y-93187942D01*
X110673000Y-93328397D01*
X110673000Y-93471603D01*
X110700938Y-93612058D01*
X110755741Y-93744364D01*
X110835302Y-93863436D01*
X110936564Y-93964698D01*
X111055636Y-94044259D01*
X111187942Y-94099062D01*
X111328397Y-94127000D01*
X111471603Y-94127000D01*
X111612058Y-94099062D01*
X111744364Y-94044259D01*
X111863436Y-93964698D01*
X111964698Y-93863436D01*
X112044259Y-93744364D01*
X112099062Y-93612058D01*
X112127000Y-93471603D01*
X112127000Y-93328397D01*
X112124317Y-93314907D01*
X115787224Y-89652000D01*
X117358162Y-89652000D01*
X117355741Y-89655624D01*
X117300938Y-89787930D01*
X117273000Y-89928385D01*
X117273000Y-90071591D01*
X117300938Y-90212046D01*
X117355741Y-90344352D01*
X117435302Y-90463424D01*
X117536564Y-90564686D01*
X117655636Y-90644247D01*
X117787942Y-90699050D01*
X117928397Y-90726988D01*
X118071603Y-90726988D01*
X118085093Y-90724305D01*
X118164627Y-90803839D01*
X118178841Y-90821159D01*
X118196100Y-90835323D01*
X118664681Y-91303905D01*
X118678841Y-91321159D01*
X118747667Y-91377643D01*
X118826190Y-91419614D01*
X118911392Y-91445460D01*
X119000000Y-91454187D01*
X119022205Y-91452000D01*
X130019866Y-91452000D01*
X129935302Y-91536564D01*
X129927661Y-91548000D01*
X118572339Y-91548000D01*
X118564698Y-91536564D01*
X118463436Y-91435302D01*
X118344364Y-91355741D01*
X118212058Y-91300938D01*
X118071603Y-91273000D01*
X117928397Y-91273000D01*
X117787942Y-91300938D01*
X117655636Y-91355741D01*
X117536564Y-91435302D01*
X117435302Y-91536564D01*
X117355741Y-91655636D01*
X117300938Y-91787942D01*
X117273000Y-91928397D01*
X117273000Y-92071603D01*
X117300938Y-92212058D01*
X117355741Y-92344364D01*
X117435302Y-92463436D01*
X117536564Y-92564698D01*
X117655636Y-92644259D01*
X117787942Y-92699062D01*
X117928397Y-92727000D01*
X118071603Y-92727000D01*
X118212058Y-92699062D01*
X118344364Y-92644259D01*
X118463436Y-92564698D01*
X118564698Y-92463436D01*
X118572339Y-92452000D01*
X128163188Y-92452000D01*
X128140624Y-92503767D01*
X128095000Y-92713000D01*
X128095000Y-93113000D01*
X129053000Y-93113000D01*
X129053000Y-93093000D01*
X129307000Y-93093000D01*
X129307000Y-93113000D01*
X130265000Y-93113000D01*
X130265000Y-92713000D01*
X130259381Y-92687232D01*
X130287942Y-92699062D01*
X130428397Y-92727000D01*
X130571603Y-92727000D01*
X130641986Y-92713000D01*
X136735000Y-92713000D01*
X136735000Y-93113000D01*
X137693000Y-93113000D01*
X137693000Y-91922498D01*
X137947000Y-91922498D01*
X137947000Y-93113000D01*
X138905000Y-93113000D01*
X138905000Y-92713000D01*
X138859376Y-92503767D01*
X138773809Y-92307455D01*
X138765454Y-92295433D01*
X139923000Y-92295433D01*
X139923000Y-92704567D01*
X140002818Y-93105839D01*
X140159386Y-93483829D01*
X140386689Y-93824011D01*
X140675989Y-94113311D01*
X141016171Y-94340614D01*
X141394161Y-94497182D01*
X141795433Y-94577000D01*
X142204567Y-94577000D01*
X142605839Y-94497182D01*
X142983829Y-94340614D01*
X143324011Y-94113311D01*
X143613311Y-93824011D01*
X143840614Y-93483829D01*
X143997182Y-93105839D01*
X144077000Y-92704567D01*
X144077000Y-92295433D01*
X143997182Y-91894161D01*
X143840614Y-91516171D01*
X143613311Y-91175989D01*
X143324011Y-90886689D01*
X142983829Y-90659386D01*
X142605839Y-90502818D01*
X142204567Y-90423000D01*
X141795433Y-90423000D01*
X141394161Y-90502818D01*
X141016171Y-90659386D01*
X140675989Y-90886689D01*
X140386689Y-91175989D01*
X140159386Y-91516171D01*
X140002818Y-91894161D01*
X139923000Y-92295433D01*
X138765454Y-92295433D01*
X138651587Y-92131609D01*
X138497408Y-91982986D01*
X138317197Y-91867298D01*
X138114001Y-91795592D01*
X137947000Y-91922498D01*
X137693000Y-91922498D01*
X137525999Y-91795592D01*
X137322803Y-91867298D01*
X137142592Y-91982986D01*
X136988413Y-92131609D01*
X136866191Y-92307455D01*
X136780624Y-92503767D01*
X136735000Y-92713000D01*
X130641986Y-92713000D01*
X130712058Y-92699062D01*
X130844364Y-92644259D01*
X130963436Y-92564698D01*
X131064698Y-92463436D01*
X131075871Y-92446714D01*
X131088607Y-92445460D01*
X131173810Y-92419614D01*
X131252333Y-92377643D01*
X131321159Y-92321159D01*
X131377643Y-92252333D01*
X131419614Y-92173810D01*
X131445460Y-92088607D01*
X131454187Y-92000000D01*
X131445460Y-91911393D01*
X131419614Y-91826190D01*
X131377643Y-91747667D01*
X131321159Y-91678841D01*
X131252333Y-91622357D01*
X131173810Y-91580386D01*
X131088607Y-91554540D01*
X131075871Y-91553286D01*
X131064698Y-91536564D01*
X130980134Y-91452000D01*
X132427661Y-91452000D01*
X132435302Y-91463436D01*
X132536564Y-91564698D01*
X132655636Y-91644259D01*
X132787942Y-91699062D01*
X132928397Y-91727000D01*
X133071603Y-91727000D01*
X133212058Y-91699062D01*
X133344364Y-91644259D01*
X133463436Y-91564698D01*
X133564698Y-91463436D01*
X133644259Y-91344364D01*
X133699062Y-91212058D01*
X133727000Y-91071603D01*
X133727000Y-90928397D01*
X133699062Y-90787942D01*
X133644259Y-90655636D01*
X133564698Y-90536564D01*
X133463436Y-90435302D01*
X133344364Y-90355741D01*
X133304785Y-90339347D01*
X133600124Y-90339347D01*
X134175683Y-90914907D01*
X134173000Y-90928397D01*
X134173000Y-91071603D01*
X134200938Y-91212058D01*
X134255741Y-91344364D01*
X134335302Y-91463436D01*
X134436564Y-91564698D01*
X134555636Y-91644259D01*
X134687942Y-91699062D01*
X134828397Y-91727000D01*
X134971603Y-91727000D01*
X135112058Y-91699062D01*
X135244364Y-91644259D01*
X135363436Y-91564698D01*
X135464698Y-91463436D01*
X135544259Y-91344364D01*
X135599062Y-91212058D01*
X135627000Y-91071603D01*
X135627000Y-90928397D01*
X135599062Y-90787942D01*
X135544259Y-90655636D01*
X135464698Y-90536564D01*
X135363436Y-90435302D01*
X135244364Y-90355741D01*
X135112058Y-90300938D01*
X134971603Y-90273000D01*
X134828397Y-90273000D01*
X134814907Y-90275683D01*
X134122670Y-89583447D01*
X134108506Y-89566188D01*
X134039680Y-89509704D01*
X133999535Y-89488246D01*
X135763000Y-89488246D01*
X135763000Y-89611754D01*
X135787095Y-89732889D01*
X135834360Y-89846996D01*
X135902977Y-89949689D01*
X135990311Y-90037023D01*
X136093004Y-90105640D01*
X136207111Y-90152905D01*
X136328246Y-90177000D01*
X136451754Y-90177000D01*
X136572889Y-90152905D01*
X136686996Y-90105640D01*
X136789689Y-90037023D01*
X136807900Y-90018812D01*
X136866191Y-90152545D01*
X136988413Y-90328391D01*
X137142592Y-90477014D01*
X137322803Y-90592702D01*
X137525999Y-90664408D01*
X137693000Y-90537502D01*
X137693000Y-89197000D01*
X137947000Y-89197000D01*
X137947000Y-90537502D01*
X138114001Y-90664408D01*
X138317197Y-90592702D01*
X138497408Y-90477014D01*
X138651587Y-90328391D01*
X138773809Y-90152545D01*
X138859376Y-89956233D01*
X138905000Y-89747000D01*
X138905000Y-89197000D01*
X137947000Y-89197000D01*
X137693000Y-89197000D01*
X137673000Y-89197000D01*
X137673000Y-88943000D01*
X137693000Y-88943000D01*
X137693000Y-87602498D01*
X137947000Y-87602498D01*
X137947000Y-88943000D01*
X138905000Y-88943000D01*
X138905000Y-88393000D01*
X138859376Y-88183767D01*
X138773809Y-87987455D01*
X138651587Y-87811609D01*
X138497408Y-87662986D01*
X138317197Y-87547298D01*
X138114001Y-87475592D01*
X137947000Y-87602498D01*
X137693000Y-87602498D01*
X137525999Y-87475592D01*
X137322803Y-87547298D01*
X137142592Y-87662986D01*
X136988413Y-87811609D01*
X136866191Y-87987455D01*
X136780624Y-88183767D01*
X136735000Y-88393000D01*
X136735000Y-89026435D01*
X136686996Y-88994360D01*
X136572889Y-88947095D01*
X136451754Y-88923000D01*
X136328246Y-88923000D01*
X136207111Y-88947095D01*
X136093004Y-88994360D01*
X135990311Y-89062977D01*
X135902977Y-89150311D01*
X135834360Y-89253004D01*
X135787095Y-89367111D01*
X135763000Y-89488246D01*
X133999535Y-89488246D01*
X133961157Y-89467733D01*
X133875954Y-89441887D01*
X133809552Y-89435347D01*
X133787347Y-89433160D01*
X133765142Y-89435347D01*
X132159686Y-89435347D01*
X132152045Y-89423911D01*
X132050783Y-89322649D01*
X131931711Y-89243088D01*
X131799405Y-89188285D01*
X131658950Y-89160347D01*
X131515744Y-89160347D01*
X131375289Y-89188285D01*
X131242983Y-89243088D01*
X131179189Y-89285714D01*
X131165640Y-89253004D01*
X131097023Y-89150311D01*
X131009689Y-89062977D01*
X130906996Y-88994360D01*
X130792889Y-88947095D01*
X130671754Y-88923000D01*
X130548246Y-88923000D01*
X130427111Y-88947095D01*
X130313004Y-88994360D01*
X130265000Y-89026435D01*
X130265000Y-88393000D01*
X130219376Y-88183767D01*
X130133809Y-87987455D01*
X130011587Y-87811609D01*
X129857408Y-87662986D01*
X129677197Y-87547298D01*
X129474001Y-87475592D01*
X129307000Y-87602498D01*
X129307000Y-88943000D01*
X129327000Y-88943000D01*
X129327000Y-89197000D01*
X129307000Y-89197000D01*
X129307000Y-89217000D01*
X129053000Y-89217000D01*
X129053000Y-89197000D01*
X128095000Y-89197000D01*
X128095000Y-89747000D01*
X128140624Y-89956233D01*
X128226191Y-90152545D01*
X128348413Y-90328391D01*
X128502592Y-90477014D01*
X128613169Y-90548000D01*
X119187224Y-90548000D01*
X118835377Y-90196154D01*
X118821159Y-90178829D01*
X118803905Y-90164669D01*
X118724317Y-90085081D01*
X118727000Y-90071591D01*
X118727000Y-89928385D01*
X118699062Y-89787930D01*
X118644259Y-89655624D01*
X118641838Y-89652000D01*
X119012777Y-89652000D01*
X119464685Y-90103910D01*
X119478841Y-90121159D01*
X119547667Y-90177643D01*
X119582155Y-90196077D01*
X119626190Y-90219614D01*
X119711392Y-90245460D01*
X119799999Y-90254187D01*
X119822204Y-90252000D01*
X125838129Y-90252000D01*
X125860334Y-90254187D01*
X125882539Y-90252000D01*
X125948941Y-90245460D01*
X126034144Y-90219614D01*
X126112667Y-90177643D01*
X126181493Y-90121159D01*
X126195657Y-90103900D01*
X128159812Y-88139746D01*
X128140624Y-88183767D01*
X128095000Y-88393000D01*
X128095000Y-88943000D01*
X129053000Y-88943000D01*
X129053000Y-87602498D01*
X128885999Y-87475592D01*
X128790136Y-87509421D01*
X131179100Y-85120458D01*
X131179100Y-85228589D01*
X131268291Y-85676982D01*
X131443245Y-86099358D01*
X131697239Y-86479488D01*
X132020512Y-86802761D01*
X132400642Y-87056755D01*
X132823018Y-87231709D01*
X133271411Y-87320900D01*
X133728589Y-87320900D01*
X134176982Y-87231709D01*
X134599358Y-87056755D01*
X134979488Y-86802761D01*
X135302761Y-86479488D01*
X135556755Y-86099358D01*
X135731709Y-85676982D01*
X135820900Y-85228589D01*
X135820900Y-84771411D01*
X135731709Y-84323018D01*
X135556755Y-83900642D01*
X135302761Y-83520512D01*
X134979488Y-83197239D01*
X134599358Y-82943245D01*
X134176982Y-82768291D01*
X133728589Y-82679100D01*
X133620457Y-82679100D01*
X134019501Y-82280056D01*
X135483000Y-82280056D01*
X135483000Y-82639944D01*
X135553211Y-82992916D01*
X135690934Y-83325409D01*
X135890876Y-83624645D01*
X136145355Y-83879124D01*
X136444591Y-84079066D01*
X136777084Y-84216789D01*
X137130056Y-84287000D01*
X137489944Y-84287000D01*
X137662729Y-84252631D01*
X137536159Y-84442055D01*
X137447366Y-84656419D01*
X137402100Y-84883987D01*
X137402100Y-85116013D01*
X137447366Y-85343581D01*
X137536159Y-85557945D01*
X137665066Y-85750867D01*
X137829133Y-85914934D01*
X138022055Y-86043841D01*
X138236419Y-86132634D01*
X138463987Y-86177900D01*
X138696013Y-86177900D01*
X138923581Y-86132634D01*
X139137945Y-86043841D01*
X139330867Y-85914934D01*
X139494934Y-85750867D01*
X139623841Y-85557945D01*
X139712634Y-85343581D01*
X139757900Y-85116013D01*
X139757900Y-84883987D01*
X139712634Y-84656419D01*
X139623841Y-84442055D01*
X139494934Y-84249133D01*
X139330867Y-84085066D01*
X139137945Y-83956159D01*
X138923581Y-83867366D01*
X138696013Y-83822100D01*
X138531669Y-83822100D01*
X138729124Y-83624645D01*
X138929066Y-83325409D01*
X139066789Y-82992916D01*
X139137000Y-82639944D01*
X139137000Y-82280056D01*
X139066789Y-81927084D01*
X138929066Y-81594591D01*
X138729124Y-81295355D01*
X138474645Y-81040876D01*
X138175409Y-80840934D01*
X137842916Y-80703211D01*
X137489944Y-80633000D01*
X137130056Y-80633000D01*
X136777084Y-80703211D01*
X136444591Y-80840934D01*
X136145355Y-81040876D01*
X135890876Y-81295355D01*
X135690934Y-81594591D01*
X135553211Y-81927084D01*
X135483000Y-82280056D01*
X134019501Y-82280056D01*
X136703911Y-79595648D01*
X136721159Y-79581493D01*
X136777643Y-79512667D01*
X136819614Y-79434144D01*
X136845460Y-79348941D01*
X136854187Y-79260335D01*
X136852000Y-79238130D01*
X136852000Y-77295433D01*
X139923000Y-77295433D01*
X139923000Y-77704567D01*
X140002818Y-78105839D01*
X140159386Y-78483829D01*
X140386689Y-78824011D01*
X140675989Y-79113311D01*
X141016171Y-79340614D01*
X141394161Y-79497182D01*
X141795433Y-79577000D01*
X142204567Y-79577000D01*
X142605839Y-79497182D01*
X142983829Y-79340614D01*
X143324011Y-79113311D01*
X143613311Y-78824011D01*
X143840614Y-78483829D01*
X143997182Y-78105839D01*
X144077000Y-77704567D01*
X144077000Y-77295433D01*
X143997182Y-76894161D01*
X143840614Y-76516171D01*
X143613311Y-76175989D01*
X143324011Y-75886689D01*
X142983829Y-75659386D01*
X142605839Y-75502818D01*
X142204567Y-75423000D01*
X141795433Y-75423000D01*
X141394161Y-75502818D01*
X141016171Y-75659386D01*
X140675989Y-75886689D01*
X140386689Y-76175989D01*
X140159386Y-76516171D01*
X140002818Y-76894161D01*
X139923000Y-77295433D01*
X136852000Y-77295433D01*
X136852000Y-76572339D01*
X136863436Y-76564698D01*
X136964698Y-76463436D01*
X137044259Y-76344364D01*
X137099062Y-76212058D01*
X137127000Y-76071603D01*
X137127000Y-75928397D01*
X137099062Y-75787942D01*
X137044259Y-75655636D01*
X136964698Y-75536564D01*
X136863436Y-75435302D01*
X136744364Y-75355741D01*
X136612058Y-75300938D01*
X136501767Y-75279000D01*
X142986360Y-75279000D01*
X143236899Y-75303565D01*
X143464777Y-75372366D01*
X143674952Y-75484118D01*
X143859415Y-75634563D01*
X144011143Y-75817971D01*
X144124361Y-76027363D01*
X144194750Y-76254752D01*
X144221001Y-76504514D01*
X144221000Y-93486360D01*
X144196435Y-93736899D01*
X144127634Y-93964777D01*
X144015882Y-94174952D01*
X143865437Y-94359415D01*
X143682029Y-94511143D01*
X143472637Y-94624361D01*
X143245247Y-94694751D01*
X142995495Y-94721000D01*
X137947002Y-94721000D01*
X137947002Y-94557504D01*
X138114001Y-94684408D01*
X138317197Y-94612702D01*
X138497408Y-94497014D01*
X138651587Y-94348391D01*
X138773809Y-94172545D01*
X138859376Y-93976233D01*
X138905000Y-93767000D01*
X138905000Y-93367000D01*
X137947000Y-93367000D01*
X137947000Y-93387000D01*
X137693000Y-93387000D01*
X137693000Y-93367000D01*
X136735000Y-93367000D01*
X136735000Y-93767000D01*
X136780624Y-93976233D01*
X136866191Y-94172545D01*
X136988413Y-94348391D01*
X137142592Y-94497014D01*
X137322803Y-94612702D01*
X137525999Y-94684408D01*
X137692998Y-94557504D01*
X137692998Y-94721000D01*
X129307002Y-94721000D01*
X129307002Y-94557504D01*
X129474001Y-94684408D01*
X129677197Y-94612702D01*
X129857408Y-94497014D01*
X130011587Y-94348391D01*
X130133809Y-94172545D01*
X130219376Y-93976233D01*
X130265000Y-93767000D01*
X130265000Y-93367000D01*
X129307000Y-93367000D01*
X129307000Y-93387000D01*
X129053000Y-93387000D01*
X129053000Y-93367000D01*
X128095000Y-93367000D01*
X128095000Y-93767000D01*
X128140624Y-93976233D01*
X128226191Y-94172545D01*
X128348413Y-94348391D01*
X128502592Y-94497014D01*
X128682803Y-94612702D01*
X128885999Y-94684408D01*
X129052998Y-94557504D01*
X129052998Y-94721000D01*
X109243148Y-94721000D01*
X109244265Y-94719328D01*
X109299068Y-94587022D01*
X109327006Y-94446567D01*
X109327006Y-94303361D01*
X109299068Y-94162906D01*
X109244265Y-94030600D01*
X109164704Y-93911528D01*
X109063442Y-93810266D01*
X108944370Y-93730705D01*
X108812064Y-93675902D01*
X108693327Y-93652284D01*
X108090581Y-93049538D01*
X108072516Y-93027526D01*
X107984657Y-92955421D01*
X107884418Y-92901843D01*
X107820312Y-92882397D01*
X107775653Y-92868849D01*
X107720587Y-92863426D01*
X107690878Y-92860500D01*
X107690873Y-92860500D01*
X107662542Y-92857710D01*
X107634211Y-92860500D01*
X101382525Y-92860500D01*
X101281864Y-92793241D01*
X101149558Y-92738438D01*
X101009103Y-92710500D01*
X100865897Y-92710500D01*
X100725442Y-92738438D01*
X100593136Y-92793241D01*
X100474064Y-92872802D01*
X100372802Y-92974064D01*
X100293241Y-93093136D01*
X100238438Y-93225442D01*
X100210500Y-93365897D01*
X100210500Y-93509103D01*
X100238438Y-93649558D01*
X100293241Y-93781864D01*
X100372802Y-93900936D01*
X100474064Y-94002198D01*
X100593136Y-94081759D01*
X100725442Y-94136562D01*
X100865897Y-94164500D01*
X101009103Y-94164500D01*
X101149558Y-94136562D01*
X101281864Y-94081759D01*
X101382525Y-94014500D01*
X107423541Y-94014500D01*
X107877326Y-94468285D01*
X107900944Y-94587022D01*
X107955747Y-94719328D01*
X107956864Y-94721000D01*
X87885591Y-94721000D01*
X87947468Y-94701297D01*
X88303927Y-94510766D01*
X88490003Y-94169609D01*
X87000000Y-92679605D01*
X85509997Y-94169609D01*
X85696073Y-94510766D01*
X86102745Y-94721000D01*
X86013640Y-94721000D01*
X85763101Y-94696435D01*
X85535223Y-94627634D01*
X85325048Y-94515882D01*
X85140585Y-94365437D01*
X84988857Y-94182029D01*
X84875639Y-93972637D01*
X84805249Y-93745247D01*
X84779000Y-93495495D01*
X84779000Y-93385591D01*
X84798703Y-93447468D01*
X84989234Y-93803927D01*
X85330391Y-93990003D01*
X86820395Y-92500000D01*
X87179605Y-92500000D01*
X88669609Y-93990003D01*
X89010766Y-93803927D01*
X89226513Y-93386591D01*
X89319720Y-93063397D01*
X93708000Y-93063397D01*
X93708000Y-93206603D01*
X93735938Y-93347058D01*
X93790741Y-93479364D01*
X93870302Y-93598436D01*
X93971564Y-93699698D01*
X94090636Y-93779259D01*
X94222942Y-93834062D01*
X94363397Y-93862000D01*
X94506603Y-93862000D01*
X94647058Y-93834062D01*
X94779364Y-93779259D01*
X94898436Y-93699698D01*
X94999698Y-93598436D01*
X95007339Y-93587000D01*
X97342795Y-93587000D01*
X97365000Y-93589187D01*
X97387205Y-93587000D01*
X97453607Y-93580460D01*
X97538810Y-93554614D01*
X97617333Y-93512643D01*
X97686159Y-93456159D01*
X97700323Y-93438900D01*
X99414907Y-91724317D01*
X99428397Y-91727000D01*
X99571603Y-91727000D01*
X99712058Y-91699062D01*
X99844364Y-91644259D01*
X99963436Y-91564698D01*
X100064698Y-91463436D01*
X100144259Y-91344364D01*
X100199062Y-91212058D01*
X100227000Y-91071603D01*
X100227000Y-90928397D01*
X100199062Y-90787942D01*
X100144259Y-90655636D01*
X100064698Y-90536564D01*
X99963436Y-90435302D01*
X99844364Y-90355741D01*
X99712058Y-90300938D01*
X99571603Y-90273000D01*
X99428397Y-90273000D01*
X99287942Y-90300938D01*
X99155636Y-90355741D01*
X99036564Y-90435302D01*
X98935302Y-90536564D01*
X98855741Y-90655636D01*
X98800938Y-90787942D01*
X98773000Y-90928397D01*
X98773000Y-91071603D01*
X98775683Y-91085093D01*
X97177777Y-92683000D01*
X95007339Y-92683000D01*
X94999698Y-92671564D01*
X94898436Y-92570302D01*
X94779364Y-92490741D01*
X94647058Y-92435938D01*
X94506603Y-92408000D01*
X94363397Y-92408000D01*
X94222942Y-92435938D01*
X94090636Y-92490741D01*
X93971564Y-92570302D01*
X93870302Y-92671564D01*
X93790741Y-92790636D01*
X93735938Y-92922942D01*
X93708000Y-93063397D01*
X89319720Y-93063397D01*
X89356696Y-92935185D01*
X89396313Y-92467054D01*
X89343842Y-92000189D01*
X89201297Y-91552532D01*
X89010766Y-91196073D01*
X88669609Y-91009997D01*
X87179605Y-92500000D01*
X86820395Y-92500000D01*
X85330391Y-91009997D01*
X84989234Y-91196073D01*
X84779000Y-91602745D01*
X84779000Y-90830391D01*
X85509997Y-90830391D01*
X87000000Y-92320395D01*
X88490003Y-90830391D01*
X88303927Y-90489234D01*
X87886591Y-90273487D01*
X87435185Y-90143304D01*
X86967054Y-90103687D01*
X86500189Y-90156158D01*
X86052532Y-90298703D01*
X85696073Y-90489234D01*
X85509997Y-90830391D01*
X84779000Y-90830391D01*
X84779000Y-84883987D01*
X89242100Y-84883987D01*
X89242100Y-85116013D01*
X89287366Y-85343581D01*
X89376159Y-85557945D01*
X89505066Y-85750867D01*
X89669133Y-85914934D01*
X89862055Y-86043841D01*
X90076419Y-86132634D01*
X90303987Y-86177900D01*
X90536013Y-86177900D01*
X90763581Y-86132634D01*
X90977945Y-86043841D01*
X91170867Y-85914934D01*
X91334934Y-85750867D01*
X91463841Y-85557945D01*
X91552634Y-85343581D01*
X91597900Y-85116013D01*
X91597900Y-84883987D01*
X91552634Y-84656419D01*
X91463841Y-84442055D01*
X91334934Y-84249133D01*
X91170867Y-84085066D01*
X90977945Y-83956159D01*
X90763581Y-83867366D01*
X90536013Y-83822100D01*
X90303987Y-83822100D01*
X90076419Y-83867366D01*
X89862055Y-83956159D01*
X89669133Y-84085066D01*
X89505066Y-84249133D01*
X89376159Y-84442055D01*
X89287366Y-84656419D01*
X89242100Y-84883987D01*
X84779000Y-84883987D01*
X84779000Y-79169609D01*
X85509997Y-79169609D01*
X85696073Y-79510766D01*
X86113409Y-79726513D01*
X86564815Y-79856696D01*
X87032946Y-79896313D01*
X87499811Y-79843842D01*
X87825746Y-79740056D01*
X91133000Y-79740056D01*
X91133000Y-80099944D01*
X91203211Y-80452916D01*
X91340934Y-80785409D01*
X91540876Y-81084645D01*
X91795355Y-81339124D01*
X92094591Y-81539066D01*
X92427084Y-81676789D01*
X92780056Y-81747000D01*
X93139944Y-81747000D01*
X93232110Y-81728667D01*
X91896100Y-83064677D01*
X91878841Y-83078841D01*
X91822358Y-83147667D01*
X91780386Y-83226191D01*
X91754540Y-83311393D01*
X91745813Y-83400000D01*
X91748000Y-83422205D01*
X91748001Y-88977785D01*
X91745813Y-89000000D01*
X91754540Y-89088607D01*
X91780386Y-89173809D01*
X91817416Y-89243088D01*
X91822358Y-89252333D01*
X91878842Y-89321159D01*
X91896096Y-89335319D01*
X92864681Y-90303905D01*
X92878841Y-90321159D01*
X92947667Y-90377643D01*
X93026190Y-90419614D01*
X93111392Y-90445460D01*
X93200000Y-90454187D01*
X93222205Y-90452000D01*
X97427661Y-90452000D01*
X97435302Y-90463436D01*
X97536564Y-90564698D01*
X97655636Y-90644259D01*
X97787942Y-90699062D01*
X97928397Y-90727000D01*
X98071603Y-90727000D01*
X98212058Y-90699062D01*
X98344364Y-90644259D01*
X98463436Y-90564698D01*
X98564698Y-90463436D01*
X98644259Y-90344364D01*
X98699062Y-90212058D01*
X98727000Y-90071603D01*
X98727000Y-89928397D01*
X98699062Y-89787942D01*
X98644259Y-89655636D01*
X98564698Y-89536564D01*
X98463436Y-89435302D01*
X98344364Y-89355741D01*
X98212058Y-89300938D01*
X98071603Y-89273000D01*
X97928397Y-89273000D01*
X97787942Y-89300938D01*
X97655636Y-89355741D01*
X97536564Y-89435302D01*
X97435302Y-89536564D01*
X97427661Y-89548000D01*
X93387224Y-89548000D01*
X92652000Y-88812777D01*
X92652000Y-88141830D01*
X92655636Y-88144259D01*
X92787942Y-88199062D01*
X92928397Y-88227000D01*
X93071603Y-88227000D01*
X93085093Y-88224317D01*
X93564680Y-88703904D01*
X93578840Y-88721158D01*
X93647666Y-88777642D01*
X93726189Y-88819613D01*
X93811391Y-88845459D01*
X93899999Y-88854186D01*
X93922204Y-88851999D01*
X103177796Y-88851999D01*
X103200001Y-88854186D01*
X103222206Y-88851999D01*
X103288608Y-88845459D01*
X103373811Y-88819613D01*
X103452334Y-88777642D01*
X103521160Y-88721158D01*
X103535324Y-88703899D01*
X106914908Y-85324317D01*
X106928397Y-85327000D01*
X107071603Y-85327000D01*
X107212058Y-85299062D01*
X107344364Y-85244259D01*
X107463436Y-85164698D01*
X107564698Y-85063436D01*
X107644259Y-84944364D01*
X107669267Y-84883987D01*
X108242100Y-84883987D01*
X108242100Y-85116013D01*
X108287366Y-85343581D01*
X108376159Y-85557945D01*
X108505066Y-85750867D01*
X108669133Y-85914934D01*
X108862055Y-86043841D01*
X109076419Y-86132634D01*
X109303987Y-86177900D01*
X109536013Y-86177900D01*
X109763581Y-86132634D01*
X109977945Y-86043841D01*
X110170867Y-85914934D01*
X110334934Y-85750867D01*
X110463841Y-85557945D01*
X110552634Y-85343581D01*
X110597900Y-85116013D01*
X110597900Y-84883987D01*
X110575508Y-84771411D01*
X112179100Y-84771411D01*
X112179100Y-85228589D01*
X112268291Y-85676982D01*
X112443245Y-86099358D01*
X112697239Y-86479488D01*
X113020512Y-86802761D01*
X113400642Y-87056755D01*
X113823018Y-87231709D01*
X114271411Y-87320900D01*
X114728589Y-87320900D01*
X115176982Y-87231709D01*
X115599358Y-87056755D01*
X115979488Y-86802761D01*
X116302761Y-86479488D01*
X116556755Y-86099358D01*
X116731709Y-85676982D01*
X116820900Y-85228589D01*
X116820900Y-84771411D01*
X116731709Y-84323018D01*
X116556755Y-83900642D01*
X116302761Y-83520512D01*
X115979488Y-83197239D01*
X115599358Y-82943245D01*
X115176982Y-82768291D01*
X114728589Y-82679100D01*
X114271411Y-82679100D01*
X113823018Y-82768291D01*
X113400642Y-82943245D01*
X113020512Y-83197239D01*
X112697239Y-83520512D01*
X112443245Y-83900642D01*
X112268291Y-84323018D01*
X112179100Y-84771411D01*
X110575508Y-84771411D01*
X110552634Y-84656419D01*
X110463841Y-84442055D01*
X110334934Y-84249133D01*
X110170867Y-84085066D01*
X109977945Y-83956159D01*
X109763581Y-83867366D01*
X109536013Y-83822100D01*
X109303987Y-83822100D01*
X109076419Y-83867366D01*
X108862055Y-83956159D01*
X108669133Y-84085066D01*
X108505066Y-84249133D01*
X108376159Y-84442055D01*
X108287366Y-84656419D01*
X108242100Y-84883987D01*
X107669267Y-84883987D01*
X107699062Y-84812058D01*
X107727000Y-84671603D01*
X107727000Y-84528397D01*
X107699062Y-84387942D01*
X107644259Y-84255636D01*
X107564698Y-84136564D01*
X107463436Y-84035302D01*
X107344364Y-83955741D01*
X107212058Y-83900938D01*
X107071603Y-83873000D01*
X106928397Y-83873000D01*
X106787942Y-83900938D01*
X106655636Y-83955741D01*
X106536564Y-84035302D01*
X106435302Y-84136564D01*
X106355741Y-84255636D01*
X106300938Y-84387942D01*
X106273000Y-84528397D01*
X106273000Y-84671603D01*
X106275683Y-84685092D01*
X103012778Y-87947999D01*
X94087223Y-87947999D01*
X93724317Y-87585093D01*
X93727000Y-87571603D01*
X93727000Y-87428397D01*
X93699062Y-87287942D01*
X93644259Y-87155636D01*
X93564698Y-87036564D01*
X93463436Y-86935302D01*
X93344364Y-86855741D01*
X93212058Y-86800938D01*
X93071603Y-86773000D01*
X92928397Y-86773000D01*
X92787942Y-86800938D01*
X92655636Y-86855741D01*
X92652000Y-86858170D01*
X92652000Y-84771411D01*
X93179100Y-84771411D01*
X93179100Y-85228589D01*
X93268291Y-85676982D01*
X93443245Y-86099358D01*
X93697239Y-86479488D01*
X94020512Y-86802761D01*
X94400642Y-87056755D01*
X94823018Y-87231709D01*
X95271411Y-87320900D01*
X95728589Y-87320900D01*
X96176982Y-87231709D01*
X96599358Y-87056755D01*
X96979488Y-86802761D01*
X97302761Y-86479488D01*
X97556755Y-86099358D01*
X97731709Y-85676982D01*
X97820900Y-85228589D01*
X97820900Y-84771411D01*
X97731709Y-84323018D01*
X97556755Y-83900642D01*
X97302761Y-83520512D01*
X96979488Y-83197239D01*
X96599358Y-82943245D01*
X96176982Y-82768291D01*
X95728589Y-82679100D01*
X95271411Y-82679100D01*
X94823018Y-82768291D01*
X94400642Y-82943245D01*
X94020512Y-83197239D01*
X93697239Y-83520512D01*
X93443245Y-83900642D01*
X93268291Y-84323018D01*
X93179100Y-84771411D01*
X92652000Y-84771411D01*
X92652000Y-83587223D01*
X96303905Y-79935319D01*
X96312339Y-79928397D01*
X97273000Y-79928397D01*
X97273000Y-80071603D01*
X97300938Y-80212058D01*
X97355741Y-80344364D01*
X97435302Y-80463436D01*
X97536564Y-80564698D01*
X97655636Y-80644259D01*
X97787942Y-80699062D01*
X97928397Y-80727000D01*
X98071603Y-80727000D01*
X98212058Y-80699062D01*
X98344364Y-80644259D01*
X98463436Y-80564698D01*
X98564698Y-80463436D01*
X98644259Y-80344364D01*
X98699062Y-80212058D01*
X98727000Y-80071603D01*
X98727000Y-79928397D01*
X98718451Y-79885417D01*
X99685418Y-78918451D01*
X99728397Y-78927000D01*
X99871603Y-78927000D01*
X100012058Y-78899062D01*
X100144364Y-78844259D01*
X100263436Y-78764698D01*
X100364698Y-78663436D01*
X100444259Y-78544364D01*
X100499062Y-78412058D01*
X100527000Y-78271603D01*
X100527000Y-78128397D01*
X100499062Y-77987942D01*
X100444259Y-77855636D01*
X100364698Y-77736564D01*
X100263436Y-77635302D01*
X100144364Y-77555741D01*
X100012058Y-77500938D01*
X99871603Y-77473000D01*
X99728397Y-77473000D01*
X99587942Y-77500938D01*
X99455636Y-77555741D01*
X99336564Y-77635302D01*
X99235302Y-77736564D01*
X99155741Y-77855636D01*
X99100938Y-77987942D01*
X99073000Y-78128397D01*
X99073000Y-78271603D01*
X99081549Y-78314582D01*
X98114583Y-79281549D01*
X98071603Y-79273000D01*
X97928397Y-79273000D01*
X97787942Y-79300938D01*
X97655636Y-79355741D01*
X97536564Y-79435302D01*
X97435302Y-79536564D01*
X97355741Y-79655636D01*
X97300938Y-79787942D01*
X97273000Y-79928397D01*
X96312339Y-79928397D01*
X96321159Y-79921159D01*
X96377643Y-79852333D01*
X96419614Y-79773810D01*
X96429853Y-79740056D01*
X96445460Y-79688608D01*
X96454187Y-79600000D01*
X96452000Y-79577795D01*
X96452000Y-78372339D01*
X96463436Y-78364698D01*
X96564698Y-78263436D01*
X96644259Y-78144364D01*
X96699062Y-78012058D01*
X96727000Y-77871603D01*
X96727000Y-77728397D01*
X96699062Y-77587942D01*
X96644259Y-77455636D01*
X96564698Y-77336564D01*
X96463436Y-77235302D01*
X96344364Y-77155741D01*
X96212058Y-77100938D01*
X96071603Y-77073000D01*
X95928397Y-77073000D01*
X95787942Y-77100938D01*
X95655636Y-77155741D01*
X95536564Y-77235302D01*
X95435302Y-77336564D01*
X95355741Y-77455636D01*
X95300938Y-77587942D01*
X95273000Y-77728397D01*
X95273000Y-77871603D01*
X95300938Y-78012058D01*
X95355741Y-78144364D01*
X95435302Y-78263436D01*
X95536564Y-78364698D01*
X95548000Y-78372339D01*
X95548001Y-79412775D01*
X94768667Y-80192109D01*
X94787000Y-80099944D01*
X94787000Y-79740056D01*
X94716789Y-79387084D01*
X94579066Y-79054591D01*
X94379124Y-78755355D01*
X94124645Y-78500876D01*
X93825409Y-78300934D01*
X93492916Y-78163211D01*
X93139944Y-78093000D01*
X92780056Y-78093000D01*
X92427084Y-78163211D01*
X92094591Y-78300934D01*
X91795355Y-78500876D01*
X91540876Y-78755355D01*
X91340934Y-79054591D01*
X91203211Y-79387084D01*
X91133000Y-79740056D01*
X87825746Y-79740056D01*
X87947468Y-79701297D01*
X88303927Y-79510766D01*
X88490003Y-79169609D01*
X87000000Y-77679605D01*
X85509997Y-79169609D01*
X84779000Y-79169609D01*
X84779000Y-78385591D01*
X84798703Y-78447468D01*
X84989234Y-78803927D01*
X85330391Y-78990003D01*
X86820395Y-77500000D01*
X87179605Y-77500000D01*
X88669609Y-78990003D01*
X89010766Y-78803927D01*
X89226513Y-78386591D01*
X89356696Y-77935185D01*
X89396313Y-77467054D01*
X89343842Y-77000189D01*
X89201297Y-76552532D01*
X89010766Y-76196073D01*
X88669609Y-76009997D01*
X87179605Y-77500000D01*
X86820395Y-77500000D01*
X85330391Y-76009997D01*
X84989234Y-76196073D01*
X84779000Y-76602745D01*
X84779000Y-76513640D01*
X84803565Y-76263101D01*
X84872366Y-76035223D01*
X84984118Y-75825048D01*
X85134563Y-75640585D01*
X85317971Y-75488857D01*
X85527363Y-75375639D01*
X85754752Y-75305250D01*
X86004505Y-75279000D01*
X86114409Y-75279000D01*
X86052532Y-75298703D01*
G37*
%TD.AperFunction*%
D17*
X115583240Y-88487110D02*
X115596605Y-88503395D01*
X115612889Y-88516759D01*
X115612898Y-88516768D01*
X115661623Y-88556755D01*
X115693528Y-88573808D01*
X115735804Y-88596405D01*
X115816293Y-88620822D01*
X115879022Y-88627000D01*
X115879032Y-88627000D01*
X115899999Y-88629065D01*
X115920966Y-88627000D01*
X125210956Y-88627000D01*
X125235302Y-88663436D01*
X125336564Y-88764698D01*
X125455636Y-88844259D01*
X125587942Y-88899062D01*
X125728397Y-88927000D01*
X125871603Y-88927000D01*
X126012058Y-88899062D01*
X126144364Y-88844259D01*
X126242271Y-88778840D01*
X125673111Y-89348000D01*
X119987225Y-89348000D01*
X119535323Y-88896100D01*
X119521159Y-88878841D01*
X119452333Y-88822357D01*
X119373810Y-88780386D01*
X119288607Y-88754540D01*
X119222205Y-88748000D01*
X119200000Y-88745813D01*
X119177795Y-88748000D01*
X115622205Y-88748000D01*
X115600000Y-88745813D01*
X115511392Y-88754540D01*
X115435239Y-88777641D01*
X115426190Y-88780386D01*
X115347667Y-88822357D01*
X115278841Y-88878841D01*
X115264681Y-88896095D01*
X111485093Y-92675683D01*
X111471603Y-92673000D01*
X111328397Y-92673000D01*
X111187942Y-92700938D01*
X111055636Y-92755741D01*
X110936564Y-92835302D01*
X110856101Y-92915765D01*
X110899062Y-92812048D01*
X110927000Y-92671593D01*
X110927000Y-92528387D01*
X110899062Y-92387932D01*
X110844259Y-92255626D01*
X110764698Y-92136554D01*
X110663436Y-92035292D01*
X110652014Y-92027660D01*
X110652014Y-88372325D01*
X110663450Y-88364684D01*
X110764712Y-88263422D01*
X110789058Y-88226986D01*
X115323117Y-88226986D01*
X115583240Y-88487110D01*
%TA.AperFunction,Conductor*%
D18*
G36*
X115583240Y-88487110D02*
G01*
X115596605Y-88503395D01*
X115612889Y-88516759D01*
X115612898Y-88516768D01*
X115661623Y-88556755D01*
X115693528Y-88573808D01*
X115735804Y-88596405D01*
X115816293Y-88620822D01*
X115879022Y-88627000D01*
X115879032Y-88627000D01*
X115899999Y-88629065D01*
X115920966Y-88627000D01*
X125210956Y-88627000D01*
X125235302Y-88663436D01*
X125336564Y-88764698D01*
X125455636Y-88844259D01*
X125587942Y-88899062D01*
X125728397Y-88927000D01*
X125871603Y-88927000D01*
X126012058Y-88899062D01*
X126144364Y-88844259D01*
X126242271Y-88778840D01*
X125673111Y-89348000D01*
X119987225Y-89348000D01*
X119535323Y-88896100D01*
X119521159Y-88878841D01*
X119452333Y-88822357D01*
X119373810Y-88780386D01*
X119288607Y-88754540D01*
X119222205Y-88748000D01*
X119200000Y-88745813D01*
X119177795Y-88748000D01*
X115622205Y-88748000D01*
X115600000Y-88745813D01*
X115511392Y-88754540D01*
X115435239Y-88777641D01*
X115426190Y-88780386D01*
X115347667Y-88822357D01*
X115278841Y-88878841D01*
X115264681Y-88896095D01*
X111485093Y-92675683D01*
X111471603Y-92673000D01*
X111328397Y-92673000D01*
X111187942Y-92700938D01*
X111055636Y-92755741D01*
X110936564Y-92835302D01*
X110856101Y-92915765D01*
X110899062Y-92812048D01*
X110927000Y-92671593D01*
X110927000Y-92528387D01*
X110899062Y-92387932D01*
X110844259Y-92255626D01*
X110764698Y-92136554D01*
X110663436Y-92035292D01*
X110652014Y-92027660D01*
X110652014Y-88372325D01*
X110663450Y-88364684D01*
X110764712Y-88263422D01*
X110789058Y-88226986D01*
X115323117Y-88226986D01*
X115583240Y-88487110D01*
G37*
%TD.AperFunction*%
%TD*%
M02*
