%TF.GenerationSoftware,KiCad,Pcbnew,(5.1.9)-1*%
%TF.CreationDate,2021-04-12T14:13:55+08:00*%
%TF.ProjectId,HDSP_StatTrak,48445350-5f53-4746-9174-5472616b2e6b,rev?*%
%TF.SameCoordinates,Original*%
%TF.FileFunction,Paste,Top*%
%TF.FilePolarity,Positive*%
%FSLAX46Y46*%
G04 Gerber Fmt 4.6, Leading zero omitted, Abs format (unit mm)*
G04 Created by KiCad (PCBNEW (5.1.9)-1) date 2021-04-12 14:13:55*
%MOMM*%
%LPD*%
G01*
G04 APERTURE LIST*
%ADD10R,2.550000X2.500000*%
%ADD11R,1.600000X0.760000*%
%ADD12R,0.650000X1.050000*%
%ADD13R,1.060000X0.650000*%
%ADD14R,0.600000X1.160000*%
%ADD15R,0.300000X1.160000*%
%ADD16R,0.600000X0.450000*%
%ADD17R,0.900000X0.800000*%
G04 APERTURE END LIST*
D10*
%TO.C,SW2*%
X141060000Y-82460000D03*
X127210000Y-79920000D03*
%TD*%
%TO.C,R8*%
G36*
G01*
X94012500Y-89049998D02*
X94012500Y-89950002D01*
G75*
G02*
X93762502Y-90200000I-249998J0D01*
G01*
X93237498Y-90200000D01*
G75*
G02*
X92987500Y-89950002I0J249998D01*
G01*
X92987500Y-89049998D01*
G75*
G02*
X93237498Y-88800000I249998J0D01*
G01*
X93762502Y-88800000D01*
G75*
G02*
X94012500Y-89049998I0J-249998D01*
G01*
G37*
G36*
G01*
X95837500Y-89049998D02*
X95837500Y-89950002D01*
G75*
G02*
X95587502Y-90200000I-249998J0D01*
G01*
X95062498Y-90200000D01*
G75*
G02*
X94812500Y-89950002I0J249998D01*
G01*
X94812500Y-89049998D01*
G75*
G02*
X95062498Y-88800000I249998J0D01*
G01*
X95587502Y-88800000D01*
G75*
G02*
X95837500Y-89049998I0J-249998D01*
G01*
G37*
%TD*%
%TO.C,R6*%
G36*
G01*
X90987500Y-89950002D02*
X90987500Y-89049998D01*
G75*
G02*
X91237498Y-88800000I249998J0D01*
G01*
X91762502Y-88800000D01*
G75*
G02*
X92012500Y-89049998I0J-249998D01*
G01*
X92012500Y-89950002D01*
G75*
G02*
X91762502Y-90200000I-249998J0D01*
G01*
X91237498Y-90200000D01*
G75*
G02*
X90987500Y-89950002I0J249998D01*
G01*
G37*
G36*
G01*
X89162500Y-89950002D02*
X89162500Y-89049998D01*
G75*
G02*
X89412498Y-88800000I249998J0D01*
G01*
X89937502Y-88800000D01*
G75*
G02*
X90187500Y-89049998I0J-249998D01*
G01*
X90187500Y-89950002D01*
G75*
G02*
X89937502Y-90200000I-249998J0D01*
G01*
X89412498Y-90200000D01*
G75*
G02*
X89162500Y-89950002I0J249998D01*
G01*
G37*
%TD*%
D11*
%TO.C,SW5*%
X97310000Y-91865000D03*
X89690000Y-93135000D03*
X97310000Y-93135000D03*
X89690000Y-91865000D03*
%TD*%
D10*
%TO.C,SW3*%
X122060000Y-82460000D03*
X108210000Y-79920000D03*
%TD*%
%TO.C,SW1*%
X89210000Y-79920000D03*
X103060000Y-82460000D03*
%TD*%
%TO.C,R4*%
G36*
G01*
X114900000Y-76450002D02*
X114900000Y-75549998D01*
G75*
G02*
X115149998Y-75300000I249998J0D01*
G01*
X115675002Y-75300000D01*
G75*
G02*
X115925000Y-75549998I0J-249998D01*
G01*
X115925000Y-76450002D01*
G75*
G02*
X115675002Y-76700000I-249998J0D01*
G01*
X115149998Y-76700000D01*
G75*
G02*
X114900000Y-76450002I0J249998D01*
G01*
G37*
G36*
G01*
X113075000Y-76450002D02*
X113075000Y-75549998D01*
G75*
G02*
X113324998Y-75300000I249998J0D01*
G01*
X113850002Y-75300000D01*
G75*
G02*
X114100000Y-75549998I0J-249998D01*
G01*
X114100000Y-76450002D01*
G75*
G02*
X113850002Y-76700000I-249998J0D01*
G01*
X113324998Y-76700000D01*
G75*
G02*
X113075000Y-76450002I0J249998D01*
G01*
G37*
%TD*%
%TO.C,R3*%
G36*
G01*
X134400000Y-76450002D02*
X134400000Y-75549998D01*
G75*
G02*
X134649998Y-75300000I249998J0D01*
G01*
X135175002Y-75300000D01*
G75*
G02*
X135425000Y-75549998I0J-249998D01*
G01*
X135425000Y-76450002D01*
G75*
G02*
X135175002Y-76700000I-249998J0D01*
G01*
X134649998Y-76700000D01*
G75*
G02*
X134400000Y-76450002I0J249998D01*
G01*
G37*
G36*
G01*
X132575000Y-76450002D02*
X132575000Y-75549998D01*
G75*
G02*
X132824998Y-75300000I249998J0D01*
G01*
X133350002Y-75300000D01*
G75*
G02*
X133600000Y-75549998I0J-249998D01*
G01*
X133600000Y-76450002D01*
G75*
G02*
X133350002Y-76700000I-249998J0D01*
G01*
X132824998Y-76700000D01*
G75*
G02*
X132575000Y-76450002I0J249998D01*
G01*
G37*
%TD*%
%TO.C,R1*%
G36*
G01*
X95400000Y-76450002D02*
X95400000Y-75549998D01*
G75*
G02*
X95649998Y-75300000I249998J0D01*
G01*
X96175002Y-75300000D01*
G75*
G02*
X96425000Y-75549998I0J-249998D01*
G01*
X96425000Y-76450002D01*
G75*
G02*
X96175002Y-76700000I-249998J0D01*
G01*
X95649998Y-76700000D01*
G75*
G02*
X95400000Y-76450002I0J249998D01*
G01*
G37*
G36*
G01*
X93575000Y-76450002D02*
X93575000Y-75549998D01*
G75*
G02*
X93824998Y-75300000I249998J0D01*
G01*
X94350002Y-75300000D01*
G75*
G02*
X94600000Y-75549998I0J-249998D01*
G01*
X94600000Y-76450002D01*
G75*
G02*
X94350002Y-76700000I-249998J0D01*
G01*
X93824998Y-76700000D01*
G75*
G02*
X93575000Y-76450002I0J249998D01*
G01*
G37*
%TD*%
D12*
%TO.C,SW4*%
X87575000Y-82925000D03*
X87575000Y-87075000D03*
X85425000Y-82925000D03*
X85425000Y-87075000D03*
%TD*%
D13*
%TO.C,U1*%
X123900000Y-93950000D03*
X123900000Y-92050000D03*
X126100000Y-92050000D03*
X126100000Y-93000000D03*
X126100000Y-93950000D03*
%TD*%
%TO.C,R7*%
G36*
G01*
X114400000Y-90450002D02*
X114400000Y-89549998D01*
G75*
G02*
X114649998Y-89300000I249998J0D01*
G01*
X115175002Y-89300000D01*
G75*
G02*
X115425000Y-89549998I0J-249998D01*
G01*
X115425000Y-90450002D01*
G75*
G02*
X115175002Y-90700000I-249998J0D01*
G01*
X114649998Y-90700000D01*
G75*
G02*
X114400000Y-90450002I0J249998D01*
G01*
G37*
G36*
G01*
X112575000Y-90450002D02*
X112575000Y-89549998D01*
G75*
G02*
X112824998Y-89300000I249998J0D01*
G01*
X113350002Y-89300000D01*
G75*
G02*
X113600000Y-89549998I0J-249998D01*
G01*
X113600000Y-90450002D01*
G75*
G02*
X113350002Y-90700000I-249998J0D01*
G01*
X112824998Y-90700000D01*
G75*
G02*
X112575000Y-90450002I0J249998D01*
G01*
G37*
%TD*%
%TO.C,R5*%
G36*
G01*
X114400000Y-92950002D02*
X114400000Y-92049998D01*
G75*
G02*
X114649998Y-91800000I249998J0D01*
G01*
X115175002Y-91800000D01*
G75*
G02*
X115425000Y-92049998I0J-249998D01*
G01*
X115425000Y-92950002D01*
G75*
G02*
X115175002Y-93200000I-249998J0D01*
G01*
X114649998Y-93200000D01*
G75*
G02*
X114400000Y-92950002I0J249998D01*
G01*
G37*
G36*
G01*
X112575000Y-92950002D02*
X112575000Y-92049998D01*
G75*
G02*
X112824998Y-91800000I249998J0D01*
G01*
X113350002Y-91800000D01*
G75*
G02*
X113600000Y-92049998I0J-249998D01*
G01*
X113600000Y-92950002D01*
G75*
G02*
X113350002Y-93200000I-249998J0D01*
G01*
X112824998Y-93200000D01*
G75*
G02*
X112575000Y-92950002I0J249998D01*
G01*
G37*
%TD*%
%TO.C,R2*%
G36*
G01*
X86100000Y-89049998D02*
X86100000Y-89950002D01*
G75*
G02*
X85850002Y-90200000I-249998J0D01*
G01*
X85324998Y-90200000D01*
G75*
G02*
X85075000Y-89950002I0J249998D01*
G01*
X85075000Y-89049998D01*
G75*
G02*
X85324998Y-88800000I249998J0D01*
G01*
X85850002Y-88800000D01*
G75*
G02*
X86100000Y-89049998I0J-249998D01*
G01*
G37*
G36*
G01*
X87925000Y-89049998D02*
X87925000Y-89950002D01*
G75*
G02*
X87675002Y-90200000I-249998J0D01*
G01*
X87149998Y-90200000D01*
G75*
G02*
X86900000Y-89950002I0J249998D01*
G01*
X86900000Y-89049998D01*
G75*
G02*
X87149998Y-88800000I249998J0D01*
G01*
X87675002Y-88800000D01*
G75*
G02*
X87925000Y-89049998I0J-249998D01*
G01*
G37*
%TD*%
%TO.C,MCU1*%
G36*
G01*
X103085000Y-87795000D02*
X103085000Y-88335000D01*
G75*
G02*
X102835000Y-88585000I-250000J0D01*
G01*
X102295000Y-88585000D01*
G75*
G02*
X102045000Y-88335000I0J250000D01*
G01*
X102045000Y-87795000D01*
G75*
G02*
X102295000Y-87545000I250000J0D01*
G01*
X102835000Y-87545000D01*
G75*
G02*
X103085000Y-87795000I0J-250000D01*
G01*
G37*
G36*
G01*
X103085000Y-89085000D02*
X103085000Y-89625000D01*
G75*
G02*
X102835000Y-89875000I-250000J0D01*
G01*
X102295000Y-89875000D01*
G75*
G02*
X102045000Y-89625000I0J250000D01*
G01*
X102045000Y-89085000D01*
G75*
G02*
X102295000Y-88835000I250000J0D01*
G01*
X102835000Y-88835000D01*
G75*
G02*
X103085000Y-89085000I0J-250000D01*
G01*
G37*
G36*
G01*
X103085000Y-90375000D02*
X103085000Y-90915000D01*
G75*
G02*
X102835000Y-91165000I-250000J0D01*
G01*
X102295000Y-91165000D01*
G75*
G02*
X102045000Y-90915000I0J250000D01*
G01*
X102045000Y-90375000D01*
G75*
G02*
X102295000Y-90125000I250000J0D01*
G01*
X102835000Y-90125000D01*
G75*
G02*
X103085000Y-90375000I0J-250000D01*
G01*
G37*
G36*
G01*
X103085000Y-91665000D02*
X103085000Y-92205000D01*
G75*
G02*
X102835000Y-92455000I-250000J0D01*
G01*
X102295000Y-92455000D01*
G75*
G02*
X102045000Y-92205000I0J250000D01*
G01*
X102045000Y-91665000D01*
G75*
G02*
X102295000Y-91415000I250000J0D01*
G01*
X102835000Y-91415000D01*
G75*
G02*
X103085000Y-91665000I0J-250000D01*
G01*
G37*
G36*
G01*
X104375000Y-87795000D02*
X104375000Y-88335000D01*
G75*
G02*
X104125000Y-88585000I-250000J0D01*
G01*
X103585000Y-88585000D01*
G75*
G02*
X103335000Y-88335000I0J250000D01*
G01*
X103335000Y-87795000D01*
G75*
G02*
X103585000Y-87545000I250000J0D01*
G01*
X104125000Y-87545000D01*
G75*
G02*
X104375000Y-87795000I0J-250000D01*
G01*
G37*
G36*
G01*
X104375000Y-89085000D02*
X104375000Y-89625000D01*
G75*
G02*
X104125000Y-89875000I-250000J0D01*
G01*
X103585000Y-89875000D01*
G75*
G02*
X103335000Y-89625000I0J250000D01*
G01*
X103335000Y-89085000D01*
G75*
G02*
X103585000Y-88835000I250000J0D01*
G01*
X104125000Y-88835000D01*
G75*
G02*
X104375000Y-89085000I0J-250000D01*
G01*
G37*
G36*
G01*
X104375000Y-90375000D02*
X104375000Y-90915000D01*
G75*
G02*
X104125000Y-91165000I-250000J0D01*
G01*
X103585000Y-91165000D01*
G75*
G02*
X103335000Y-90915000I0J250000D01*
G01*
X103335000Y-90375000D01*
G75*
G02*
X103585000Y-90125000I250000J0D01*
G01*
X104125000Y-90125000D01*
G75*
G02*
X104375000Y-90375000I0J-250000D01*
G01*
G37*
G36*
G01*
X104375000Y-91665000D02*
X104375000Y-92205000D01*
G75*
G02*
X104125000Y-92455000I-250000J0D01*
G01*
X103585000Y-92455000D01*
G75*
G02*
X103335000Y-92205000I0J250000D01*
G01*
X103335000Y-91665000D01*
G75*
G02*
X103585000Y-91415000I250000J0D01*
G01*
X104125000Y-91415000D01*
G75*
G02*
X104375000Y-91665000I0J-250000D01*
G01*
G37*
G36*
G01*
X105665000Y-87795000D02*
X105665000Y-88335000D01*
G75*
G02*
X105415000Y-88585000I-250000J0D01*
G01*
X104875000Y-88585000D01*
G75*
G02*
X104625000Y-88335000I0J250000D01*
G01*
X104625000Y-87795000D01*
G75*
G02*
X104875000Y-87545000I250000J0D01*
G01*
X105415000Y-87545000D01*
G75*
G02*
X105665000Y-87795000I0J-250000D01*
G01*
G37*
G36*
G01*
X105665000Y-89085000D02*
X105665000Y-89625000D01*
G75*
G02*
X105415000Y-89875000I-250000J0D01*
G01*
X104875000Y-89875000D01*
G75*
G02*
X104625000Y-89625000I0J250000D01*
G01*
X104625000Y-89085000D01*
G75*
G02*
X104875000Y-88835000I250000J0D01*
G01*
X105415000Y-88835000D01*
G75*
G02*
X105665000Y-89085000I0J-250000D01*
G01*
G37*
G36*
G01*
X105665000Y-90375000D02*
X105665000Y-90915000D01*
G75*
G02*
X105415000Y-91165000I-250000J0D01*
G01*
X104875000Y-91165000D01*
G75*
G02*
X104625000Y-90915000I0J250000D01*
G01*
X104625000Y-90375000D01*
G75*
G02*
X104875000Y-90125000I250000J0D01*
G01*
X105415000Y-90125000D01*
G75*
G02*
X105665000Y-90375000I0J-250000D01*
G01*
G37*
G36*
G01*
X105665000Y-91665000D02*
X105665000Y-92205000D01*
G75*
G02*
X105415000Y-92455000I-250000J0D01*
G01*
X104875000Y-92455000D01*
G75*
G02*
X104625000Y-92205000I0J250000D01*
G01*
X104625000Y-91665000D01*
G75*
G02*
X104875000Y-91415000I250000J0D01*
G01*
X105415000Y-91415000D01*
G75*
G02*
X105665000Y-91665000I0J-250000D01*
G01*
G37*
G36*
G01*
X106955000Y-87795000D02*
X106955000Y-88335000D01*
G75*
G02*
X106705000Y-88585000I-250000J0D01*
G01*
X106165000Y-88585000D01*
G75*
G02*
X105915000Y-88335000I0J250000D01*
G01*
X105915000Y-87795000D01*
G75*
G02*
X106165000Y-87545000I250000J0D01*
G01*
X106705000Y-87545000D01*
G75*
G02*
X106955000Y-87795000I0J-250000D01*
G01*
G37*
G36*
G01*
X106955000Y-89085000D02*
X106955000Y-89625000D01*
G75*
G02*
X106705000Y-89875000I-250000J0D01*
G01*
X106165000Y-89875000D01*
G75*
G02*
X105915000Y-89625000I0J250000D01*
G01*
X105915000Y-89085000D01*
G75*
G02*
X106165000Y-88835000I250000J0D01*
G01*
X106705000Y-88835000D01*
G75*
G02*
X106955000Y-89085000I0J-250000D01*
G01*
G37*
G36*
G01*
X106955000Y-90375000D02*
X106955000Y-90915000D01*
G75*
G02*
X106705000Y-91165000I-250000J0D01*
G01*
X106165000Y-91165000D01*
G75*
G02*
X105915000Y-90915000I0J250000D01*
G01*
X105915000Y-90375000D01*
G75*
G02*
X106165000Y-90125000I250000J0D01*
G01*
X106705000Y-90125000D01*
G75*
G02*
X106955000Y-90375000I0J-250000D01*
G01*
G37*
G36*
G01*
X106955000Y-91665000D02*
X106955000Y-92205000D01*
G75*
G02*
X106705000Y-92455000I-250000J0D01*
G01*
X106165000Y-92455000D01*
G75*
G02*
X105915000Y-92205000I0J250000D01*
G01*
X105915000Y-91665000D01*
G75*
G02*
X106165000Y-91415000I250000J0D01*
G01*
X106705000Y-91415000D01*
G75*
G02*
X106955000Y-91665000I0J-250000D01*
G01*
G37*
G36*
G01*
X107125000Y-93062500D02*
X107125000Y-93812500D01*
G75*
G02*
X107062500Y-93875000I-62500J0D01*
G01*
X106937500Y-93875000D01*
G75*
G02*
X106875000Y-93812500I0J62500D01*
G01*
X106875000Y-93062500D01*
G75*
G02*
X106937500Y-93000000I62500J0D01*
G01*
X107062500Y-93000000D01*
G75*
G02*
X107125000Y-93062500I0J-62500D01*
G01*
G37*
G36*
G01*
X106625000Y-93062500D02*
X106625000Y-93812500D01*
G75*
G02*
X106562500Y-93875000I-62500J0D01*
G01*
X106437500Y-93875000D01*
G75*
G02*
X106375000Y-93812500I0J62500D01*
G01*
X106375000Y-93062500D01*
G75*
G02*
X106437500Y-93000000I62500J0D01*
G01*
X106562500Y-93000000D01*
G75*
G02*
X106625000Y-93062500I0J-62500D01*
G01*
G37*
G36*
G01*
X106125000Y-93062500D02*
X106125000Y-93812500D01*
G75*
G02*
X106062500Y-93875000I-62500J0D01*
G01*
X105937500Y-93875000D01*
G75*
G02*
X105875000Y-93812500I0J62500D01*
G01*
X105875000Y-93062500D01*
G75*
G02*
X105937500Y-93000000I62500J0D01*
G01*
X106062500Y-93000000D01*
G75*
G02*
X106125000Y-93062500I0J-62500D01*
G01*
G37*
G36*
G01*
X105625000Y-93062500D02*
X105625000Y-93812500D01*
G75*
G02*
X105562500Y-93875000I-62500J0D01*
G01*
X105437500Y-93875000D01*
G75*
G02*
X105375000Y-93812500I0J62500D01*
G01*
X105375000Y-93062500D01*
G75*
G02*
X105437500Y-93000000I62500J0D01*
G01*
X105562500Y-93000000D01*
G75*
G02*
X105625000Y-93062500I0J-62500D01*
G01*
G37*
G36*
G01*
X105125000Y-93062500D02*
X105125000Y-93812500D01*
G75*
G02*
X105062500Y-93875000I-62500J0D01*
G01*
X104937500Y-93875000D01*
G75*
G02*
X104875000Y-93812500I0J62500D01*
G01*
X104875000Y-93062500D01*
G75*
G02*
X104937500Y-93000000I62500J0D01*
G01*
X105062500Y-93000000D01*
G75*
G02*
X105125000Y-93062500I0J-62500D01*
G01*
G37*
G36*
G01*
X104625000Y-93062500D02*
X104625000Y-93812500D01*
G75*
G02*
X104562500Y-93875000I-62500J0D01*
G01*
X104437500Y-93875000D01*
G75*
G02*
X104375000Y-93812500I0J62500D01*
G01*
X104375000Y-93062500D01*
G75*
G02*
X104437500Y-93000000I62500J0D01*
G01*
X104562500Y-93000000D01*
G75*
G02*
X104625000Y-93062500I0J-62500D01*
G01*
G37*
G36*
G01*
X104125000Y-93062500D02*
X104125000Y-93812500D01*
G75*
G02*
X104062500Y-93875000I-62500J0D01*
G01*
X103937500Y-93875000D01*
G75*
G02*
X103875000Y-93812500I0J62500D01*
G01*
X103875000Y-93062500D01*
G75*
G02*
X103937500Y-93000000I62500J0D01*
G01*
X104062500Y-93000000D01*
G75*
G02*
X104125000Y-93062500I0J-62500D01*
G01*
G37*
G36*
G01*
X103625000Y-93062500D02*
X103625000Y-93812500D01*
G75*
G02*
X103562500Y-93875000I-62500J0D01*
G01*
X103437500Y-93875000D01*
G75*
G02*
X103375000Y-93812500I0J62500D01*
G01*
X103375000Y-93062500D01*
G75*
G02*
X103437500Y-93000000I62500J0D01*
G01*
X103562500Y-93000000D01*
G75*
G02*
X103625000Y-93062500I0J-62500D01*
G01*
G37*
G36*
G01*
X103125000Y-93062500D02*
X103125000Y-93812500D01*
G75*
G02*
X103062500Y-93875000I-62500J0D01*
G01*
X102937500Y-93875000D01*
G75*
G02*
X102875000Y-93812500I0J62500D01*
G01*
X102875000Y-93062500D01*
G75*
G02*
X102937500Y-93000000I62500J0D01*
G01*
X103062500Y-93000000D01*
G75*
G02*
X103125000Y-93062500I0J-62500D01*
G01*
G37*
G36*
G01*
X102625000Y-93062500D02*
X102625000Y-93812500D01*
G75*
G02*
X102562500Y-93875000I-62500J0D01*
G01*
X102437500Y-93875000D01*
G75*
G02*
X102375000Y-93812500I0J62500D01*
G01*
X102375000Y-93062500D01*
G75*
G02*
X102437500Y-93000000I62500J0D01*
G01*
X102562500Y-93000000D01*
G75*
G02*
X102625000Y-93062500I0J-62500D01*
G01*
G37*
G36*
G01*
X102125000Y-93062500D02*
X102125000Y-93812500D01*
G75*
G02*
X102062500Y-93875000I-62500J0D01*
G01*
X101937500Y-93875000D01*
G75*
G02*
X101875000Y-93812500I0J62500D01*
G01*
X101875000Y-93062500D01*
G75*
G02*
X101937500Y-93000000I62500J0D01*
G01*
X102062500Y-93000000D01*
G75*
G02*
X102125000Y-93062500I0J-62500D01*
G01*
G37*
G36*
G01*
X101500000Y-92437500D02*
X101500000Y-92562500D01*
G75*
G02*
X101437500Y-92625000I-62500J0D01*
G01*
X100687500Y-92625000D01*
G75*
G02*
X100625000Y-92562500I0J62500D01*
G01*
X100625000Y-92437500D01*
G75*
G02*
X100687500Y-92375000I62500J0D01*
G01*
X101437500Y-92375000D01*
G75*
G02*
X101500000Y-92437500I0J-62500D01*
G01*
G37*
G36*
G01*
X101500000Y-91937500D02*
X101500000Y-92062500D01*
G75*
G02*
X101437500Y-92125000I-62500J0D01*
G01*
X100687500Y-92125000D01*
G75*
G02*
X100625000Y-92062500I0J62500D01*
G01*
X100625000Y-91937500D01*
G75*
G02*
X100687500Y-91875000I62500J0D01*
G01*
X101437500Y-91875000D01*
G75*
G02*
X101500000Y-91937500I0J-62500D01*
G01*
G37*
G36*
G01*
X101500000Y-91437500D02*
X101500000Y-91562500D01*
G75*
G02*
X101437500Y-91625000I-62500J0D01*
G01*
X100687500Y-91625000D01*
G75*
G02*
X100625000Y-91562500I0J62500D01*
G01*
X100625000Y-91437500D01*
G75*
G02*
X100687500Y-91375000I62500J0D01*
G01*
X101437500Y-91375000D01*
G75*
G02*
X101500000Y-91437500I0J-62500D01*
G01*
G37*
G36*
G01*
X101500000Y-90937500D02*
X101500000Y-91062500D01*
G75*
G02*
X101437500Y-91125000I-62500J0D01*
G01*
X100687500Y-91125000D01*
G75*
G02*
X100625000Y-91062500I0J62500D01*
G01*
X100625000Y-90937500D01*
G75*
G02*
X100687500Y-90875000I62500J0D01*
G01*
X101437500Y-90875000D01*
G75*
G02*
X101500000Y-90937500I0J-62500D01*
G01*
G37*
G36*
G01*
X101500000Y-90437500D02*
X101500000Y-90562500D01*
G75*
G02*
X101437500Y-90625000I-62500J0D01*
G01*
X100687500Y-90625000D01*
G75*
G02*
X100625000Y-90562500I0J62500D01*
G01*
X100625000Y-90437500D01*
G75*
G02*
X100687500Y-90375000I62500J0D01*
G01*
X101437500Y-90375000D01*
G75*
G02*
X101500000Y-90437500I0J-62500D01*
G01*
G37*
G36*
G01*
X101500000Y-89937500D02*
X101500000Y-90062500D01*
G75*
G02*
X101437500Y-90125000I-62500J0D01*
G01*
X100687500Y-90125000D01*
G75*
G02*
X100625000Y-90062500I0J62500D01*
G01*
X100625000Y-89937500D01*
G75*
G02*
X100687500Y-89875000I62500J0D01*
G01*
X101437500Y-89875000D01*
G75*
G02*
X101500000Y-89937500I0J-62500D01*
G01*
G37*
G36*
G01*
X101500000Y-89437500D02*
X101500000Y-89562500D01*
G75*
G02*
X101437500Y-89625000I-62500J0D01*
G01*
X100687500Y-89625000D01*
G75*
G02*
X100625000Y-89562500I0J62500D01*
G01*
X100625000Y-89437500D01*
G75*
G02*
X100687500Y-89375000I62500J0D01*
G01*
X101437500Y-89375000D01*
G75*
G02*
X101500000Y-89437500I0J-62500D01*
G01*
G37*
G36*
G01*
X101500000Y-88937500D02*
X101500000Y-89062500D01*
G75*
G02*
X101437500Y-89125000I-62500J0D01*
G01*
X100687500Y-89125000D01*
G75*
G02*
X100625000Y-89062500I0J62500D01*
G01*
X100625000Y-88937500D01*
G75*
G02*
X100687500Y-88875000I62500J0D01*
G01*
X101437500Y-88875000D01*
G75*
G02*
X101500000Y-88937500I0J-62500D01*
G01*
G37*
G36*
G01*
X101500000Y-88437500D02*
X101500000Y-88562500D01*
G75*
G02*
X101437500Y-88625000I-62500J0D01*
G01*
X100687500Y-88625000D01*
G75*
G02*
X100625000Y-88562500I0J62500D01*
G01*
X100625000Y-88437500D01*
G75*
G02*
X100687500Y-88375000I62500J0D01*
G01*
X101437500Y-88375000D01*
G75*
G02*
X101500000Y-88437500I0J-62500D01*
G01*
G37*
G36*
G01*
X101500000Y-87937500D02*
X101500000Y-88062500D01*
G75*
G02*
X101437500Y-88125000I-62500J0D01*
G01*
X100687500Y-88125000D01*
G75*
G02*
X100625000Y-88062500I0J62500D01*
G01*
X100625000Y-87937500D01*
G75*
G02*
X100687500Y-87875000I62500J0D01*
G01*
X101437500Y-87875000D01*
G75*
G02*
X101500000Y-87937500I0J-62500D01*
G01*
G37*
G36*
G01*
X101500000Y-87437500D02*
X101500000Y-87562500D01*
G75*
G02*
X101437500Y-87625000I-62500J0D01*
G01*
X100687500Y-87625000D01*
G75*
G02*
X100625000Y-87562500I0J62500D01*
G01*
X100625000Y-87437500D01*
G75*
G02*
X100687500Y-87375000I62500J0D01*
G01*
X101437500Y-87375000D01*
G75*
G02*
X101500000Y-87437500I0J-62500D01*
G01*
G37*
G36*
G01*
X102125000Y-86187500D02*
X102125000Y-86937500D01*
G75*
G02*
X102062500Y-87000000I-62500J0D01*
G01*
X101937500Y-87000000D01*
G75*
G02*
X101875000Y-86937500I0J62500D01*
G01*
X101875000Y-86187500D01*
G75*
G02*
X101937500Y-86125000I62500J0D01*
G01*
X102062500Y-86125000D01*
G75*
G02*
X102125000Y-86187500I0J-62500D01*
G01*
G37*
G36*
G01*
X102625000Y-86187500D02*
X102625000Y-86937500D01*
G75*
G02*
X102562500Y-87000000I-62500J0D01*
G01*
X102437500Y-87000000D01*
G75*
G02*
X102375000Y-86937500I0J62500D01*
G01*
X102375000Y-86187500D01*
G75*
G02*
X102437500Y-86125000I62500J0D01*
G01*
X102562500Y-86125000D01*
G75*
G02*
X102625000Y-86187500I0J-62500D01*
G01*
G37*
G36*
G01*
X103125000Y-86187500D02*
X103125000Y-86937500D01*
G75*
G02*
X103062500Y-87000000I-62500J0D01*
G01*
X102937500Y-87000000D01*
G75*
G02*
X102875000Y-86937500I0J62500D01*
G01*
X102875000Y-86187500D01*
G75*
G02*
X102937500Y-86125000I62500J0D01*
G01*
X103062500Y-86125000D01*
G75*
G02*
X103125000Y-86187500I0J-62500D01*
G01*
G37*
G36*
G01*
X103625000Y-86187500D02*
X103625000Y-86937500D01*
G75*
G02*
X103562500Y-87000000I-62500J0D01*
G01*
X103437500Y-87000000D01*
G75*
G02*
X103375000Y-86937500I0J62500D01*
G01*
X103375000Y-86187500D01*
G75*
G02*
X103437500Y-86125000I62500J0D01*
G01*
X103562500Y-86125000D01*
G75*
G02*
X103625000Y-86187500I0J-62500D01*
G01*
G37*
G36*
G01*
X104125000Y-86187500D02*
X104125000Y-86937500D01*
G75*
G02*
X104062500Y-87000000I-62500J0D01*
G01*
X103937500Y-87000000D01*
G75*
G02*
X103875000Y-86937500I0J62500D01*
G01*
X103875000Y-86187500D01*
G75*
G02*
X103937500Y-86125000I62500J0D01*
G01*
X104062500Y-86125000D01*
G75*
G02*
X104125000Y-86187500I0J-62500D01*
G01*
G37*
G36*
G01*
X104625000Y-86187500D02*
X104625000Y-86937500D01*
G75*
G02*
X104562500Y-87000000I-62500J0D01*
G01*
X104437500Y-87000000D01*
G75*
G02*
X104375000Y-86937500I0J62500D01*
G01*
X104375000Y-86187500D01*
G75*
G02*
X104437500Y-86125000I62500J0D01*
G01*
X104562500Y-86125000D01*
G75*
G02*
X104625000Y-86187500I0J-62500D01*
G01*
G37*
G36*
G01*
X105125000Y-86187500D02*
X105125000Y-86937500D01*
G75*
G02*
X105062500Y-87000000I-62500J0D01*
G01*
X104937500Y-87000000D01*
G75*
G02*
X104875000Y-86937500I0J62500D01*
G01*
X104875000Y-86187500D01*
G75*
G02*
X104937500Y-86125000I62500J0D01*
G01*
X105062500Y-86125000D01*
G75*
G02*
X105125000Y-86187500I0J-62500D01*
G01*
G37*
G36*
G01*
X105625000Y-86187500D02*
X105625000Y-86937500D01*
G75*
G02*
X105562500Y-87000000I-62500J0D01*
G01*
X105437500Y-87000000D01*
G75*
G02*
X105375000Y-86937500I0J62500D01*
G01*
X105375000Y-86187500D01*
G75*
G02*
X105437500Y-86125000I62500J0D01*
G01*
X105562500Y-86125000D01*
G75*
G02*
X105625000Y-86187500I0J-62500D01*
G01*
G37*
G36*
G01*
X106125000Y-86187500D02*
X106125000Y-86937500D01*
G75*
G02*
X106062500Y-87000000I-62500J0D01*
G01*
X105937500Y-87000000D01*
G75*
G02*
X105875000Y-86937500I0J62500D01*
G01*
X105875000Y-86187500D01*
G75*
G02*
X105937500Y-86125000I62500J0D01*
G01*
X106062500Y-86125000D01*
G75*
G02*
X106125000Y-86187500I0J-62500D01*
G01*
G37*
G36*
G01*
X106625000Y-86187500D02*
X106625000Y-86937500D01*
G75*
G02*
X106562500Y-87000000I-62500J0D01*
G01*
X106437500Y-87000000D01*
G75*
G02*
X106375000Y-86937500I0J62500D01*
G01*
X106375000Y-86187500D01*
G75*
G02*
X106437500Y-86125000I62500J0D01*
G01*
X106562500Y-86125000D01*
G75*
G02*
X106625000Y-86187500I0J-62500D01*
G01*
G37*
G36*
G01*
X107125000Y-86187500D02*
X107125000Y-86937500D01*
G75*
G02*
X107062500Y-87000000I-62500J0D01*
G01*
X106937500Y-87000000D01*
G75*
G02*
X106875000Y-86937500I0J62500D01*
G01*
X106875000Y-86187500D01*
G75*
G02*
X106937500Y-86125000I62500J0D01*
G01*
X107062500Y-86125000D01*
G75*
G02*
X107125000Y-86187500I0J-62500D01*
G01*
G37*
G36*
G01*
X108375000Y-87437500D02*
X108375000Y-87562500D01*
G75*
G02*
X108312500Y-87625000I-62500J0D01*
G01*
X107562500Y-87625000D01*
G75*
G02*
X107500000Y-87562500I0J62500D01*
G01*
X107500000Y-87437500D01*
G75*
G02*
X107562500Y-87375000I62500J0D01*
G01*
X108312500Y-87375000D01*
G75*
G02*
X108375000Y-87437500I0J-62500D01*
G01*
G37*
G36*
G01*
X108375000Y-87937500D02*
X108375000Y-88062500D01*
G75*
G02*
X108312500Y-88125000I-62500J0D01*
G01*
X107562500Y-88125000D01*
G75*
G02*
X107500000Y-88062500I0J62500D01*
G01*
X107500000Y-87937500D01*
G75*
G02*
X107562500Y-87875000I62500J0D01*
G01*
X108312500Y-87875000D01*
G75*
G02*
X108375000Y-87937500I0J-62500D01*
G01*
G37*
G36*
G01*
X108375000Y-88437500D02*
X108375000Y-88562500D01*
G75*
G02*
X108312500Y-88625000I-62500J0D01*
G01*
X107562500Y-88625000D01*
G75*
G02*
X107500000Y-88562500I0J62500D01*
G01*
X107500000Y-88437500D01*
G75*
G02*
X107562500Y-88375000I62500J0D01*
G01*
X108312500Y-88375000D01*
G75*
G02*
X108375000Y-88437500I0J-62500D01*
G01*
G37*
G36*
G01*
X108375000Y-88937500D02*
X108375000Y-89062500D01*
G75*
G02*
X108312500Y-89125000I-62500J0D01*
G01*
X107562500Y-89125000D01*
G75*
G02*
X107500000Y-89062500I0J62500D01*
G01*
X107500000Y-88937500D01*
G75*
G02*
X107562500Y-88875000I62500J0D01*
G01*
X108312500Y-88875000D01*
G75*
G02*
X108375000Y-88937500I0J-62500D01*
G01*
G37*
G36*
G01*
X108375000Y-89437500D02*
X108375000Y-89562500D01*
G75*
G02*
X108312500Y-89625000I-62500J0D01*
G01*
X107562500Y-89625000D01*
G75*
G02*
X107500000Y-89562500I0J62500D01*
G01*
X107500000Y-89437500D01*
G75*
G02*
X107562500Y-89375000I62500J0D01*
G01*
X108312500Y-89375000D01*
G75*
G02*
X108375000Y-89437500I0J-62500D01*
G01*
G37*
G36*
G01*
X108375000Y-89937500D02*
X108375000Y-90062500D01*
G75*
G02*
X108312500Y-90125000I-62500J0D01*
G01*
X107562500Y-90125000D01*
G75*
G02*
X107500000Y-90062500I0J62500D01*
G01*
X107500000Y-89937500D01*
G75*
G02*
X107562500Y-89875000I62500J0D01*
G01*
X108312500Y-89875000D01*
G75*
G02*
X108375000Y-89937500I0J-62500D01*
G01*
G37*
G36*
G01*
X108375000Y-90437500D02*
X108375000Y-90562500D01*
G75*
G02*
X108312500Y-90625000I-62500J0D01*
G01*
X107562500Y-90625000D01*
G75*
G02*
X107500000Y-90562500I0J62500D01*
G01*
X107500000Y-90437500D01*
G75*
G02*
X107562500Y-90375000I62500J0D01*
G01*
X108312500Y-90375000D01*
G75*
G02*
X108375000Y-90437500I0J-62500D01*
G01*
G37*
G36*
G01*
X108375000Y-90937500D02*
X108375000Y-91062500D01*
G75*
G02*
X108312500Y-91125000I-62500J0D01*
G01*
X107562500Y-91125000D01*
G75*
G02*
X107500000Y-91062500I0J62500D01*
G01*
X107500000Y-90937500D01*
G75*
G02*
X107562500Y-90875000I62500J0D01*
G01*
X108312500Y-90875000D01*
G75*
G02*
X108375000Y-90937500I0J-62500D01*
G01*
G37*
G36*
G01*
X108375000Y-91437500D02*
X108375000Y-91562500D01*
G75*
G02*
X108312500Y-91625000I-62500J0D01*
G01*
X107562500Y-91625000D01*
G75*
G02*
X107500000Y-91562500I0J62500D01*
G01*
X107500000Y-91437500D01*
G75*
G02*
X107562500Y-91375000I62500J0D01*
G01*
X108312500Y-91375000D01*
G75*
G02*
X108375000Y-91437500I0J-62500D01*
G01*
G37*
G36*
G01*
X108375000Y-91937500D02*
X108375000Y-92062500D01*
G75*
G02*
X108312500Y-92125000I-62500J0D01*
G01*
X107562500Y-92125000D01*
G75*
G02*
X107500000Y-92062500I0J62500D01*
G01*
X107500000Y-91937500D01*
G75*
G02*
X107562500Y-91875000I62500J0D01*
G01*
X108312500Y-91875000D01*
G75*
G02*
X108375000Y-91937500I0J-62500D01*
G01*
G37*
G36*
G01*
X108375000Y-92437500D02*
X108375000Y-92562500D01*
G75*
G02*
X108312500Y-92625000I-62500J0D01*
G01*
X107562500Y-92625000D01*
G75*
G02*
X107500000Y-92562500I0J62500D01*
G01*
X107500000Y-92437500D01*
G75*
G02*
X107562500Y-92375000I62500J0D01*
G01*
X108312500Y-92375000D01*
G75*
G02*
X108375000Y-92437500I0J-62500D01*
G01*
G37*
%TD*%
D14*
%TO.C,J1*%
X136700000Y-88490000D03*
X135900000Y-88490000D03*
X136700000Y-88490000D03*
X135900000Y-88490000D03*
X130300000Y-88490000D03*
X130300000Y-88490000D03*
X131100000Y-88490000D03*
X131100000Y-88490000D03*
D15*
X135250000Y-88490000D03*
X134250000Y-88490000D03*
X134750000Y-88490000D03*
X132250000Y-88490000D03*
X131750000Y-88490000D03*
X133750000Y-88490000D03*
X133250000Y-88490000D03*
X132750000Y-88490000D03*
%TD*%
D16*
%TO.C,D2*%
X123700000Y-90000000D03*
X125800000Y-90000000D03*
%TD*%
%TO.C,C19*%
G36*
G01*
X121950000Y-89750000D02*
X121950000Y-90250000D01*
G75*
G02*
X121725000Y-90475000I-225000J0D01*
G01*
X121275000Y-90475000D01*
G75*
G02*
X121050000Y-90250000I0J225000D01*
G01*
X121050000Y-89750000D01*
G75*
G02*
X121275000Y-89525000I225000J0D01*
G01*
X121725000Y-89525000D01*
G75*
G02*
X121950000Y-89750000I0J-225000D01*
G01*
G37*
G36*
G01*
X120400000Y-89750000D02*
X120400000Y-90250000D01*
G75*
G02*
X120175000Y-90475000I-225000J0D01*
G01*
X119725000Y-90475000D01*
G75*
G02*
X119500000Y-90250000I0J225000D01*
G01*
X119500000Y-89750000D01*
G75*
G02*
X119725000Y-89525000I225000J0D01*
G01*
X120175000Y-89525000D01*
G75*
G02*
X120400000Y-89750000I0J-225000D01*
G01*
G37*
%TD*%
%TO.C,C13*%
G36*
G01*
X121925000Y-91750000D02*
X121925000Y-92250000D01*
G75*
G02*
X121700000Y-92475000I-225000J0D01*
G01*
X121250000Y-92475000D01*
G75*
G02*
X121025000Y-92250000I0J225000D01*
G01*
X121025000Y-91750000D01*
G75*
G02*
X121250000Y-91525000I225000J0D01*
G01*
X121700000Y-91525000D01*
G75*
G02*
X121925000Y-91750000I0J-225000D01*
G01*
G37*
G36*
G01*
X120375000Y-91750000D02*
X120375000Y-92250000D01*
G75*
G02*
X120150000Y-92475000I-225000J0D01*
G01*
X119700000Y-92475000D01*
G75*
G02*
X119475000Y-92250000I0J225000D01*
G01*
X119475000Y-91750000D01*
G75*
G02*
X119700000Y-91525000I225000J0D01*
G01*
X120150000Y-91525000D01*
G75*
G02*
X120375000Y-91750000I0J-225000D01*
G01*
G37*
%TD*%
%TO.C,C4*%
G36*
G01*
X106250000Y-77175000D02*
X105750000Y-77175000D01*
G75*
G02*
X105525000Y-76950000I0J225000D01*
G01*
X105525000Y-76500000D01*
G75*
G02*
X105750000Y-76275000I225000J0D01*
G01*
X106250000Y-76275000D01*
G75*
G02*
X106475000Y-76500000I0J-225000D01*
G01*
X106475000Y-76950000D01*
G75*
G02*
X106250000Y-77175000I-225000J0D01*
G01*
G37*
G36*
G01*
X106250000Y-78725000D02*
X105750000Y-78725000D01*
G75*
G02*
X105525000Y-78500000I0J225000D01*
G01*
X105525000Y-78050000D01*
G75*
G02*
X105750000Y-77825000I225000J0D01*
G01*
X106250000Y-77825000D01*
G75*
G02*
X106475000Y-78050000I0J-225000D01*
G01*
X106475000Y-78500000D01*
G75*
G02*
X106250000Y-78725000I-225000J0D01*
G01*
G37*
%TD*%
%TO.C,C2*%
G36*
G01*
X103825000Y-76450000D02*
X103825000Y-75950000D01*
G75*
G02*
X104050000Y-75725000I225000J0D01*
G01*
X104500000Y-75725000D01*
G75*
G02*
X104725000Y-75950000I0J-225000D01*
G01*
X104725000Y-76450000D01*
G75*
G02*
X104500000Y-76675000I-225000J0D01*
G01*
X104050000Y-76675000D01*
G75*
G02*
X103825000Y-76450000I0J225000D01*
G01*
G37*
G36*
G01*
X102275000Y-76450000D02*
X102275000Y-75950000D01*
G75*
G02*
X102500000Y-75725000I225000J0D01*
G01*
X102950000Y-75725000D01*
G75*
G02*
X103175000Y-75950000I0J-225000D01*
G01*
X103175000Y-76450000D01*
G75*
G02*
X102950000Y-76675000I-225000J0D01*
G01*
X102500000Y-76675000D01*
G75*
G02*
X102275000Y-76450000I0J225000D01*
G01*
G37*
%TD*%
%TO.C,C1*%
G36*
G01*
X111150000Y-88925000D02*
X111650000Y-88925000D01*
G75*
G02*
X111875000Y-89150000I0J-225000D01*
G01*
X111875000Y-89600000D01*
G75*
G02*
X111650000Y-89825000I-225000J0D01*
G01*
X111150000Y-89825000D01*
G75*
G02*
X110925000Y-89600000I0J225000D01*
G01*
X110925000Y-89150000D01*
G75*
G02*
X111150000Y-88925000I225000J0D01*
G01*
G37*
G36*
G01*
X111150000Y-87375000D02*
X111650000Y-87375000D01*
G75*
G02*
X111875000Y-87600000I0J-225000D01*
G01*
X111875000Y-88050000D01*
G75*
G02*
X111650000Y-88275000I-225000J0D01*
G01*
X111150000Y-88275000D01*
G75*
G02*
X110925000Y-88050000I0J225000D01*
G01*
X110925000Y-87600000D01*
G75*
G02*
X111150000Y-87375000I225000J0D01*
G01*
G37*
%TD*%
D17*
%TO.C,16MHz1*%
X102800000Y-78050000D03*
X104200000Y-78050000D03*
X104200000Y-79150000D03*
X102800000Y-79150000D03*
%TD*%
M02*
