M48
; DRILL file {KiCad (5.1.9)-1} date 04/12/21 14:13:58
; FORMAT={-:-/ absolute / metric / decimal}
; #@! TF.CreationDate,2021-04-12T14:13:58+08:00
; #@! TF.GenerationSoftware,Kicad,Pcbnew,(5.1.9)-1
; #@! TF.FileFunction,Plated,1,2,PTH
FMAT,2
METRIC
T1C0.400
T2C0.600
T3C2.000
%
G90
G05
T1
X86.4Y-85.0
X93.0Y-87.5
X94.435Y-93.135
X96.0Y-77.8
X98.0Y-80.0
X98.0Y-87.4
X98.0Y-90.0
X99.5Y-91.0
X99.5Y-92.5
X99.5Y-94.2
X99.8Y-78.2
X100.938Y-93.438
X102.5Y-84.8
X104.0Y-84.5
X105.0Y-80.5
X107.0Y-84.6
X108.2Y-82.6
X108.6Y-94.375
X110.2Y-92.6
X110.2Y-87.8
X111.4Y-93.4
X114.0Y-88.6
X117.2Y-76.0
X118.0Y-90.0
X118.0Y-92.0
X125.4Y-79.8
X125.8Y-88.2
X130.5Y-92.0
X131.587Y-89.887
X133.0Y-91.0
X134.9Y-91.0
X136.4Y-76.0
T3
X87.0Y-77.5
X87.0Y-92.5
X142.0Y-77.5
X142.0Y-92.5
T2
G00X129.18Y-89.62
M15
G01X129.18Y-88.52
M16
G05
G00X129.18Y-93.64
M15
G01X129.18Y-92.84
M16
G05
G00X137.82Y-89.62
M15
G01X137.82Y-88.52
M16
G05
G00X137.82Y-93.64
M15
G01X137.82Y-92.84
M16
G05
T0
M30
